<?xml version="1.0" encoding="UTF-8"?><!DOCTYPE svg PUBLIC "-//W3C//DTD SVG 1.1//EN" "http://www.w3.org/Graphics/SVG/1.1/DTD/svg11.dtd"><svg xmlns="http://www.w3.org/2000/svg" xmlns:xlink="http://www.w3.org/1999/xlink"><symbol id="angle-left" viewBox="0 0 7 12"><g fill="none"><path d="M6 1 1 6l5 5" stroke="currentColor" stroke-width="1.2"/></g></symbol><symbol id="angle-right" viewBox="0 0 7 12"><path fill="none" stroke="currentColor" stroke-width="1.2" d="m1 1 5 5-5 5"/></symbol><symbol id="arrow-down-small" viewBox="0 0 10 10"><g fill="none"><path stroke="currentColor" fill="none" stroke-width="1.2" d="M9 5 5 9m0 0L1 5m4 4V1"/></g></symbol><symbol id="arrow-down" viewBox="0 0 14 14"><g fill="none"><path display="var(--is-visible--md-up)" d="m12 8-5 5m0 0L2 8m5 5V1" fill="none" stroke="currentColor" stroke-width="1.2"/><path display="var(--is-visible--sm-down)" d="m11 7-4 4m0 0L3 7m4 4V3" fill="none" stroke="currentColor" stroke-width="1.2"/></g></symbol><symbol id="arrow-left-small" viewBox="0 0 9 10"><path stroke="currentColor" fill="none" stroke-width="1.2" d="M5 9 1 5m0 0 4-4M1 5h8"/></symbol><symbol id="arrow-left" viewBox="0 0 13 12"><path fill="none" stroke="currentColor" stroke-width="1.2" d="M6 11 1 6m0 0 5-5M1 6h12"/></symbol><symbol id="arrow-right-small" viewBox="0 0 9 10"><path stroke="currentColor" fill="none" stroke-width="1.2" d="m4 9 4-4m0 0L4 1m4 4H0"/></symbol><symbol id="arrow-right" viewBox="0 0 13 12"><path stroke="currentColor" fill="none" stroke-width="1.2" d="m7 1 5 5m0 0-5 5m5-5H0"/></symbol><symbol id="arrow-up-small" viewBox="0 0 10 10"><g fill="none"><path stroke="currentColor" fill="none" stroke-width="1.2" d="M9 5 5 1m0 0L1 5m4-4v8"/></g></symbol><symbol id="arrow-up" viewBox="0 0 14 14"><path display="var(--is-visible--md-up)" d="m2 6 5-5m0 0 5 5M7 1v12" fill="none" stroke="currentColor" stroke-width="1.2"/><path display="var(--is-visible--sm-down)" d="M11 7 7 3m0 0L3 7m4-4v8" fill="none" stroke="currentColor" stroke-width="1.2"/></symbol><symbol id="award-awwwards" viewBox="0 0 60 60"><g fill="none"><path fill="currentColor" d="m35.121 24-1.834 7.796c-.153.612-.204 1.172-.204 1.172h-.051s-.051-.56-.204-1.172L30.841 24h-1.784l-2.038 7.796c-.153.663-.204 1.172-.204 1.172s-.05-.56-.204-1.172l-1.324-5.809-1.02 4.28 1.274 5.045h2.344l1.784-6.726c.204-.713.306-1.478.306-1.478h.05s.102.765.306 1.478l1.733 6.675h2.344L37.26 24h-2.14Zm12.739 0-1.834 7.796a8.676 8.676 0 0 0-.204 1.172h-.051s-.051-.56-.204-1.172L43.58 24h-1.784l-2.038 7.796c-.153.663-.204 1.172-.204 1.172s-.05-.56-.204-1.172l-1.376-5.86-1.019 4.28 1.274 5.096h2.344l1.784-6.726c.203-.713.305-1.478.305-1.478h.051s.102.765.306 1.478l1.733 6.675h2.344L50 24h-2.14Zm-27.72 7.796c.153.663.204 1.172.204 1.172h.05s.052-.56.205-1.172L22.433 24h2.09l-2.905 11.261h-2.344l-1.733-6.675c-.203-.713-.305-1.478-.305-1.478h-.051s-.102.765-.306 1.478l-1.732 6.675h-2.344L10 24h2.09l1.783 7.796c.153.663.203 1.172.203 1.172h.051s.051-.56.204-1.172L16.37 24h1.784l1.987 7.796Z"/></g></symbol><symbol id="award-behance" viewBox="0 0 60 60"><g fill="none"><path fill="currentColor" d="M27.493 29.361s2.46-.182 2.46-3.067c0-2.886-2.013-4.294-4.562-4.294H17v16.124h8.39s5.123.162 5.123-4.759c0 0 .223-4.004-3.02-4.004Zm-2.102-4.495s1.14 0 1.14 1.678c0 1.677-.67 1.92-1.431 1.92h-4.403v-3.598h4.694Zm-.237 10.393h-4.457v-4.31h4.694s1.7-.022 1.7 2.215c0 1.886-1.27 2.08-1.937 2.094Zm12.19-9.157c-6.2 0-6.195 6.196-6.195 6.196s-.426 6.164 6.195 6.164c0 0 5.518.315 5.518-4.288h-2.838s.095 1.733-2.585 1.733c0 0-2.838.19-2.838-2.805h8.355s.914-7-5.612-7ZM34.57 30.95s.346-2.485 2.837-2.485c2.49 0 2.46 2.486 2.46 2.486H34.57Zm5.958-6.014h-6.653V22.95h6.653v1.986Z"/></g></symbol><symbol id="award-ca" viewBox="0 0 60 60"><g fill="none"><path fill="currentColor" d="m26.26 31.583 1.88-.02.01 1.204c0 5.456-1.403 8.412-5.285 8.203-3.982-.219-5.923-3.394-5.864-11.04.02-3.504.339-6.221 1.484-8.222C19.59 19.777 21.342 19 23.392 19c1.523 0 2.658.597 3.594 1.633.936 1.075 1.463 2.638.916 4.29-.359 1.075-.498 1.523-1.165 2.1-.348.3-.966.429-1.314.399-.488-.04-1.852-.488-1.941-2.19-.04-.717.02-1.036.358-1.583.359-.578.946-.687 1.444-.687.11 0 .697.05 1.055.518 0 0 .15.139.309.467.04.08.09.24.189.27-.02 0 .07.079.08-.33.01-.258-.08-.577-.08-.616-.379-1.613-1.543-2.37-2.887-2.32-1.016.03-2.23.737-2.668 1.852-.408 1.154-.627 3.603-.627 6.47 0 3.265-.01 5.804.328 6.998.309 1.195.906 2.628 2.569 2.658 1.582.03 2.677-1.204 2.687-6.162l.02-1.184Z"/><path fill="currentColor" d="M31.157 21.28c-1.035.398-1.513 1.602-1.573 1.752-.06.139-.12.477-.12.597 0 .309.12.428.11.458.24-.528.647-1.085 1.384-1.205.567-.09.886-.01 1.224.25.17.129.339.278.458.467.21.348.289.587.289 1.135 0 .756-.13 1.264-.597 1.822-.498.557-.946.776-1.593.756-.747-.02-1.145-.269-1.732-.866-.588-.597-.836-1.384-.876-2.35-.07-1.642.527-2.876 1.682-3.882 1.175-1.025 2.578-1.184 4.31-1.194 2.021-.01 3.375.577 4.46 2.11.329.468.498.916.697 1.523.17.498.21 1.285.21 2.559l-.03 10.79c0 1.155-.24 2.828.776 2.838.338 0 .995 0 .975-1.643l-.02-3.394 1.364.03.02 2.08c.07 3.096-.289 5.047-3.414 5.077-1.563.02-2.847-.687-3.305-2.728C34.78 40.303 33.506 41 31.894 41c-1.245 0-2.708-.657-3.514-1.653-.807-.995-.777-2.419-.737-3.932.06-2.528 1.254-4.061 3.215-5.296l2.3-1.463c1.742-.995 2.737-2.588 2.737-4.22 0-.956-.258-1.753-.756-2.35-.498-.597-1.792-1.553-3.873-.836l-.109.03Zm4.629 7.396c-1.364 1.483-2.917 2.947-3.484 3.604-.578.667-1.215 1.891-1.324 2.687-.448 3.096.856 3.883 1.792 3.883 2.528 0 3.125-3.385 3.086-6.441l-.07-3.733Z"/></g></symbol><symbol id="award-cssda" viewBox="0 0 60 60"><g fill="none"><path fill="currentColor" d="m35.088 25.302-3.996-3.94-3.919 3.94h-2.24L33.255 17h-8.733l-8.366 8.303H13v.578h34.176v-.578H35.088ZM13 34.768h12.003l3.904 3.897 3.975-3.897h2.136L26.736 43h8.74l4.356-4.306 3.96-3.926h3.39v-.585H13v.585Zm6.618-5.85c.162 0 .317.021.458.07.141.05.29.106.43.17l.317-.825a2.736 2.736 0 0 0-1.198-.275c-.38 0-.719.085-1 .247-.283.162-.501.395-.65.698a2.382 2.382 0 0 0-.225 1.057c0 .641.155 1.135.465 1.473.31.338.762.507 1.347.507.408 0 .775-.07 1.1-.218v-.888c-.163.07-.325.127-.487.169-.162.05-.324.07-.5.07-.564 0-.853-.373-.853-1.12 0-.36.07-.642.211-.846.141-.204.338-.289.585-.289Zm4.638 2.27c-.184 0-.381-.029-.592-.085a2.895 2.895 0 0 1-.62-.24v.938c.19.091.373.155.542.19.176.035.388.056.649.056.31 0 .577-.049.81-.155.233-.105.402-.246.529-.437.12-.183.183-.401.183-.641 0-.26-.064-.48-.197-.648-.134-.17-.36-.332-.698-.487-.346-.155-.564-.267-.642-.33-.077-.057-.12-.128-.12-.205 0-.07.029-.127.092-.176.064-.05.162-.071.296-.071.261 0 .578.085.938.247l.317-.81a3.025 3.025 0 0 0-1.227-.276c-.45 0-.81.099-1.07.296-.262.198-.389.48-.389.832 0 .19.029.36.092.493.063.141.155.261.282.374.127.106.317.218.57.331.283.127.452.212.515.247a.65.65 0 0 1 .141.12.238.238 0 0 1 .043.14.239.239 0 0 1-.106.205c-.07.07-.183.092-.338.092Zm4.933 0c-.183 0-.38-.029-.592-.085a2.893 2.893 0 0 1-.62-.24v.938c.19.091.373.155.543.19.176.035.387.056.648.056.31 0 .578-.049.81-.155.233-.105.402-.246.53-.437.119-.183.182-.401.182-.641 0-.26-.063-.48-.197-.648-.134-.17-.36-.332-.698-.487-.345-.155-.564-.267-.641-.33-.078-.057-.12-.128-.12-.205a.21.21 0 0 1 .092-.176c.063-.05.162-.071.296-.071.26 0 .578.085.937.247l.317-.81a3.025 3.025 0 0 0-1.226-.276c-.451 0-.81.099-1.071.296-.261.198-.388.48-.388.832 0 .19.028.36.092.493.063.141.155.261.282.374.127.106.317.218.57.331.282.127.452.212.515.247a.646.646 0 0 1 .14.12.238.238 0 0 1 .043.14.239.239 0 0 1-.106.205c-.063.07-.183.092-.338.092Zm7.19-1.22c0-.599-.17-1.057-.508-1.374-.339-.317-.818-.48-1.438-.48h-1.34v3.87h1.255c.649 0 1.142-.176 1.502-.522.352-.345.528-.845.528-1.494Zm-1.305.888c-.148.184-.38.275-.697.275h-.233v-2.17h.303c.289 0 .5.084.641.253.141.17.212.437.212.79-.007.38-.078.662-.226.852Zm5.991.41.19.725h1.142l-1.283-3.89H39.72l-1.262 3.89h1.15l.197-.726h1.261Zm-.726-2.08c.05-.204.078-.352.092-.444.014.099.056.26.113.48.056.225.105.408.14.549l.17.634h-.825c.155-.606.26-1.015.31-1.219Z"/></g></symbol><symbol id="award-fwa" viewBox="0 0 60 60"><g fill="none"><path fill="currentColor" d="M38.257 32.44V30.79h4.954v1.651h-4.954Z"/><path fill="currentColor" fill-rule="evenodd" d="M20.917 32.624c.528 0 1.032-.16 1.445-.436l1.124 2.294a2.65 2.65 0 0 0 2.386 1.467 2.65 2.65 0 0 0 2.385-1.467l.917-1.858.918 1.858a2.65 2.65 0 0 0 2.385 1.467 2.65 2.65 0 0 0 2.385-1.467l.092-.207a2.656 2.656 0 0 0 2.477 1.674h6.606a2.662 2.662 0 0 0 2.66-2.66v-.642h.642c1.468 0 2.661-1.193 2.661-2.66s-1.193-2.661-2.66-2.661h-.643v-.642a2.662 2.662 0 0 0-2.66-2.661H35.78a2.65 2.65 0 0 0-2.385 1.468l-.918 1.835-.917-1.858A2.65 2.65 0 0 0 29.174 24a2.67 2.67 0 0 0-2.385 1.49l-.917 1.836-.918-1.858A2.65 2.65 0 0 0 22.57 24h-6.606a2.662 2.662 0 0 0-2.66 2.66v.643h-.642A2.662 2.662 0 0 0 10 29.963a2.663 2.663 0 0 0 2.66 2.66h.643v.643a2.662 2.662 0 0 0 2.66 2.66 2.663 2.663 0 0 0 2.66-2.66v-.642h2.294Zm16.514-3.486a.822.822 0 0 0-.825.825v3.303c0 .459.366.826.825.826h6.606a.822.822 0 0 0 .825-.826v-2.477h2.477a.822.822 0 0 0 .826-.826.822.822 0 0 0-.826-.825h-2.477V26.66a.822.822 0 0 0-.825-.825H35.78a.817.817 0 0 0-.734.458l-2.569 5.138-2.569-5.138a.817.817 0 0 0-1.468 0l-2.569 5.138-2.568-5.138a.817.817 0 0 0-.734-.458h-6.606a.822.822 0 0 0-.825.825v2.478H12.66a.822.822 0 0 0-.826.825c0 .459.367.826.826.826h2.477v2.477c0 .459.367.826.825.826a.822.822 0 0 0 .826-.826v-2.477h4.128a.822.822 0 0 0 .826-.826.822.822 0 0 0-.826-.825H16.79v-1.652h5.275l3.074 6.147a.817.817 0 0 0 1.468 0l2.568-5.115 2.57 5.115a.817.817 0 0 0 1.467 0l3.073-6.147h6.927v1.652h-5.78Z" clip-rule="evenodd"/></g></symbol><symbol id="award-golden-site" viewBox="0 0 60 60"><g fill="none"><path fill="currentColor" d="M31.29 26.125c1.091.497 2.418-.024 2.916-1.21a2.252 2.252 0 0 0-1.161-2.962c-1.09-.498-2.418.023-2.916 1.209-.45 1.137.048 2.465 1.162 2.963ZM17.804 37.407c-.284-.142-.64 0-.758.332-.119.332 0 .664.332.782.284.143.64 0 .782-.331a.715.715 0 0 0-.356-.783Zm8.344-21.238c.284.142.64 0 .782-.332.119-.332 0-.664-.332-.782-.332-.142-.64 0-.782.332a.603.603 0 0 0 .332.782Zm6.163 27.662c-.285-.142-.64 0-.782.332-.119.332 0 .664.332.782.284.142.64 0 .782-.332.07-.284-.048-.663-.332-.782Zm10.003-21.83c-.285-.143-.64 0-.782.33-.119.333 0 .665.331.783.285.142.64 0 .783-.332.094-.26-.048-.616-.332-.782Z"/><path fill="currentColor" d="M40.701 22.403c-.521-.26-1.138.024-1.327.545-.095.285-.119.522-.024.759-.19-.356-.522-.735-.924-.877-.949-.403-2.087.023-2.466.995a1.93 1.93 0 0 0-.118 1.09c-1.09 1.28-2.37 2.087-3.508 2.229a3.33 3.33 0 0 1-.688 0 2.102 2.102 0 0 1-.687-.19c-1.09-.498-1.754-1.801-1.897-3.508-.023-.332-.07-.758-.023-1.09 0-.166.023-.332.023-.474.332-.19.546-.498.735-.854.403-.972-.023-2.11-.972-2.512a1.71 1.71 0 0 0-1.28-.071c.261-.095.403-.285.522-.546.26-.521-.024-1.161-.545-1.35-.522-.261-1.138.023-1.328.544-.26.522.024 1.162.546 1.352.213.094.45.118.663.07-.45.19-.83.546-1.019 1.02-.332.83-.095 1.778.593 2.3-.024.141-.024.284-.024.402-.024.474-.024.948.024 1.375.142 1.754.758 3.271 1.777 4.314-1.09.071-2.228.593-3.318 1.47-1.28 1.019-2.513 2.607-3.508 4.527a1.86 1.86 0 0 0-1.47 1.138c-.213.474-.19 1.019-.024 1.47a1.313 1.313 0 0 0-.497-.451c-.522-.26-1.138.024-1.328.545-.26.522.024 1.162.545 1.351.522.261 1.138-.023 1.328-.545.095-.284.118-.521.023-.758.19.355.522.734.925.877.948.403 2.086-.024 2.465-.996.166-.403.19-.83.095-1.232.806-1.755 1.849-3.13 2.963-4.03.948-.782 1.849-1.138 2.489-.83.332.143.592.474.782.877.095.214.166.474.26.759.333 1.493.072 3.579-.782 5.736-.331.19-.64.521-.805.924-.403.972.023 2.11.971 2.513.403.19.854.213 1.28.071-.26.095-.403.285-.521.545-.26.522.024 1.162.545 1.351.522.261 1.138-.023 1.327-.545.261-.521-.023-1.161-.545-1.35a1.076 1.076 0 0 0-.663-.072c.45-.19.83-.545 1.019-1.02.284-.64.166-1.327-.19-1.895.877-2.466 1.138-4.954.759-6.827a8.407 8.407 0 0 0-.356-1.233c-.19-.403-.403-.806-.664-1.137.285 0 .546 0 .806-.072 1.66-.213 3.366-1.232 4.789-2.844a1.898 1.898 0 0 0 2.038-1.138c.213-.474.19-1.019.024-1.47.095.19.284.332.498.451.521.26 1.137-.024 1.327-.545.095-.261-.142-.901-.64-1.138Z"/></g></symbol><symbol id="award-runeta" viewBox="0 0 60 60"><g fill="none"><path fill="currentColor" d="M39.963 26.889h-.778v-1.037h-1.037v-1.296h-2.074v-1.037h-3.111v-1.037H30.37v-5.704h-1.037V16h-3.11v.778h-1.038v12.185h-1.037v-.778H20v4.408h1.296v1.296h1.297v2.333h1.037v2.334h1.296v2.074h1.296V44H37.89v-4.926h1.037v-3.63h1.037V26.89ZM27.778 42.444v-2.592h-1.296v-2.074h-1.297v-2.334h-1.037v-2.333h-1.296v-1.296h-1.296V29.74h2.074v1.296h1.555v3.111h1.556V17.556h2.074v11.666h1.555v-5.185h1.815v5.185h1.556v-4.148h1.555v1.037h2.074v1.296h1.037v7.26H37.37v3.889h-1.037v3.888h-8.555Z"/></g></symbol><symbol id="award-tagline" viewBox="0 0 60 60"><g fill="none"><path fill="currentColor" fill-rule="evenodd" d="M27.746 18 19 34.475 21.807 42l9.6-.57 9.518-14.644L27.745 18Zm-2.847 21.437h-.164c-.244 0-.487-.081-.732-.204a2.23 2.23 0 0 1-1.383-2.074 2.272 2.272 0 0 1 2.279-2.277 2.274 2.274 0 0 1 2.277 2.277 2.274 2.274 0 0 1-2.277 2.278Z" clip-rule="evenodd"/></g></symbol><symbol id="check" viewBox="0 0 10 8"><path fill="none" stroke="currentColor" stroke-width="1.2" d="m1 4 3 3 5-6"/></symbol><symbol id="close" viewBox="0 0 11 20"><path stroke="currentColor" fill="none" stroke-width="1.2" d="M9.743 14.243 5.5 10M1.257 5.757 5.5 10m0 0 4.243-4.243-8.486 8.486"/></symbol><symbol id="download" viewBox="0 0 12 12"><path stroke="currentColor" fill="none" stroke-width="1.2" d="M9 5.083 6 8m0 0L3 5.083M6 8V1M1 9v2h10V9"/></symbol><symbol id="error-circle" viewBox="0 0 30 30"><g fill="none"><rect width="29" height="29" x=".5" y=".5" stroke="currentColor" fill="none" rx="14.5"/><path stroke="currentColor" fill="none" stroke-width="1.2" d="m19.243 19.243-8.486-8.486m0 8.486 8.486-8.486"/></g></symbol><symbol id="example-arrow" viewBox="0 0 20 20"><g fill="none"><path d="m8 4 6 6-6 6" stroke="currentColor" stroke-width="2" stroke-linecap="round" stroke-linejoin="round" fill="none"/></g></symbol><symbol id="example-close" viewBox="0 0 40 40"><g fill="none"><path display="var(--is-visible--sm-down)" d="M26 14 14 26m0-12 12 12" fill="none" stroke="currentColor" stroke-width="1.2"/><path display="var(--is-visible--md-up)" d="M25 15 15 25m0-10 10 10" fill="none" stroke="currentColor" stroke-width="1.2"/></g></symbol><symbol id="example-zoom-in" viewBox="0 0 24 24"><g fill="none"><rect x="9" y="1" width="6" height="22" rx="2" fill="currentColor"/><rect x="1" y="15" width="6" height="22" rx="2" transform="rotate(-90 1 15)" fill="currentColor"/></g></symbol><symbol id="example-zoom-out" viewBox="0 0 24 24"><g fill="none"><rect x="1" y="15" width="6" height="22" rx="2" transform="rotate(-90 1 15)" fill="currentColor"/></g></symbol><symbol id="file" viewBox="0 0 10 14"><path fill="none" stroke="currentColor" stroke-width="1.2" d="M4.941 1H1v12h8V5.174M4.941 1 9 5.174M4.941 1v4.174H9"/></symbol><symbol id="logo" viewBox="0 0 129 20">
<path d="M0.0454712 4.81496V2.73719H12.4261V4.81496H7.43481V18.7344H5.02898V4.81496H0.0454712Z" fill="currentColor"/>
<path d="M12.6288 18.7344V6.7365H14.8863V8.64242H15.0112C15.2299 7.9967 15.6153 7.48897 16.1673 7.11924C16.7245 6.74431 17.3546 6.55684 18.0576 6.55684C18.2034 6.55684 18.3752 6.56205 18.5731 6.57246C18.7762 6.58288 18.935 6.5959 19.0496 6.61152V8.84551C18.9559 8.81947 18.7892 8.79083 18.5497 8.75959C18.3101 8.72313 18.0706 8.70491 17.8311 8.70491C17.2791 8.70491 16.787 8.82207 16.3547 9.05641C15.9277 9.28553 15.5893 9.60579 15.3393 10.0172C15.0893 10.4234 14.9644 10.8868 14.9644 11.4076V18.7344H12.6288Z" fill="currentColor"/>
<path d="M20.1584 18.7344V2.73719H22.4939V8.68147H22.6345C22.7699 8.43152 22.9652 8.1425 23.2204 7.81444C23.4755 7.48637 23.8296 7.19996 24.2827 6.95521C24.7357 6.70525 25.3346 6.58028 26.0792 6.58028C27.0478 6.58028 27.9122 6.82503 28.6725 7.31452C29.4328 7.80402 30.0291 8.50963 30.4613 9.43134C30.8987 10.3531 31.1174 11.4622 31.1174 12.7589C31.1174 14.0555 30.9013 15.1673 30.4691 16.0942C30.0369 17.016 29.4432 17.7268 28.6882 18.2267C27.9331 18.7214 27.0712 18.9687 26.1027 18.9687C25.3736 18.9687 24.7774 18.8464 24.3139 18.6016C23.8557 18.3569 23.4963 18.0705 23.236 17.7424C22.9756 17.4143 22.7751 17.1227 22.6345 16.8676H22.4392V18.7344H20.1584ZM22.447 12.7355C22.447 13.5791 22.5694 14.3185 22.8142 14.9538C23.0589 15.5891 23.413 16.0864 23.8765 16.4457C24.3399 16.7999 24.9076 16.9769 25.5793 16.9769C26.2771 16.9769 26.8603 16.792 27.329 16.4223C27.7977 16.0474 28.1518 15.5397 28.3913 14.8991C28.6361 14.2586 28.7585 13.5374 28.7585 12.7355C28.7585 11.9439 28.6387 11.2331 28.3991 10.603C28.1648 9.97292 27.8107 9.47561 27.3368 9.11109C26.8682 8.74657 26.2823 8.56431 25.5793 8.56431C24.9024 8.56431 24.3295 8.73876 23.8609 9.08765C23.3974 9.43655 23.0459 9.92345 22.8064 10.5483C22.5668 11.1732 22.447 11.9023 22.447 12.7355Z" fill="currentColor"/>
<path d="M34.9757 2.73719V18.7344H32.6402V2.73719H34.9757Z" fill="currentColor"/>
<path d="M50.6519 6.93959C50.5686 6.20013 50.2249 5.62732 49.6208 5.22114C49.0168 4.80975 48.2565 4.60406 47.34 4.60406C46.6839 4.60406 46.1162 4.70821 45.6372 4.9165C45.1581 5.11959 44.7857 5.40079 44.5202 5.76011C44.2598 6.11421 44.1296 6.51779 44.1296 6.97083C44.1296 7.35098 44.2181 7.67904 44.3952 7.95504C44.5774 8.23103 44.8144 8.46276 45.106 8.65023C45.4028 8.83249 45.7205 8.98611 46.059 9.11109C46.3974 9.23086 46.7229 9.3298 47.0354 9.40791L48.5976 9.81409C49.1079 9.93907 49.6313 10.1083 50.1676 10.3218C50.704 10.5353 51.2013 10.8165 51.6596 11.1654C52.1178 11.5143 52.4875 11.9465 52.7687 12.4621C53.0551 12.9776 53.1983 13.5947 53.1983 14.3133C53.1983 15.2194 52.964 16.0239 52.4953 16.727C52.0319 17.43 51.3575 17.9845 50.4723 18.3907C49.5922 18.7969 48.5273 19 47.2775 19C46.0798 19 45.0435 18.8099 44.1687 18.4298C43.2938 18.0496 42.609 17.5107 42.1143 16.8129C41.6196 16.1099 41.3462 15.2767 41.2942 14.3133H43.7156C43.7625 14.8913 43.95 15.373 44.278 15.7584C44.6113 16.1385 45.0357 16.4223 45.5512 16.6098C46.072 16.792 46.6422 16.8832 47.2619 16.8832C47.944 16.8832 48.5507 16.7764 49.0819 16.5629C49.6182 16.3442 50.04 16.0422 50.3473 15.6568C50.6545 15.2663 50.8081 14.8106 50.8081 14.2899C50.8081 13.816 50.6727 13.428 50.402 13.126C50.1364 12.824 49.7745 12.574 49.3162 12.3761C48.8632 12.1783 48.3502 12.0038 47.7774 11.8528L45.8871 11.3373C44.6061 10.9884 43.5906 10.4754 42.8408 9.79847C42.0961 9.1215 41.7238 8.22582 41.7238 7.11143C41.7238 6.18972 41.9737 5.38517 42.4736 4.69779C42.9736 4.01041 43.6505 3.47665 44.5045 3.09651C45.3586 2.71116 46.3219 2.51848 47.3947 2.51848C48.4778 2.51848 49.4334 2.70855 50.2614 3.08869C51.0945 3.46884 51.7507 3.99218 52.2298 4.65873C52.7088 5.32008 52.9588 6.08036 52.9796 6.93959H50.6519Z" fill="currentColor"/>
<path d="M60.3959 6.7365V8.61117H53.8424V6.7365H60.3959ZM55.5999 3.862H57.9354V15.2116C57.9354 15.6646 58.0031 16.0057 58.1385 16.2348C58.2739 16.4588 58.4483 16.6124 58.6619 16.6957C58.8806 16.7738 59.1175 16.8129 59.3727 16.8129C59.5601 16.8129 59.7242 16.7999 59.8648 16.7738C60.0054 16.7478 60.1147 16.727 60.1928 16.7113L60.6146 18.6407C60.4792 18.6928 60.2866 18.7448 60.0366 18.7969C59.7867 18.8542 59.4742 18.8854 59.0993 18.8906C58.4848 18.9011 57.912 18.7917 57.3808 18.5626C56.8497 18.3334 56.4201 17.9793 56.092 17.5003C55.7639 17.0212 55.5999 16.4197 55.5999 15.6959V3.862Z" fill="currentColor"/>
<path d="M69.4799 13.7587V6.7365H71.8232V18.7344H69.5268V16.6567H69.4018C69.1258 17.2972 68.6832 17.8309 68.0739 18.2579C67.4698 18.6797 66.7174 18.8906 65.8165 18.8906C65.0458 18.8906 64.3636 18.7214 63.7699 18.3829C63.1815 18.0392 62.718 17.5315 62.3796 16.8597C62.0463 16.188 61.8797 15.3574 61.8797 14.368V6.7365H64.2152V14.0868C64.2152 14.9044 64.4417 15.5553 64.8948 16.0396C65.3478 16.5239 65.9362 16.766 66.6601 16.766C67.0975 16.766 67.5323 16.6567 67.9645 16.4379C68.402 16.2192 68.7639 15.8886 69.0503 15.4459C69.3419 15.0033 69.4851 14.4409 69.4799 13.7587Z" fill="currentColor"/>
<path d="M78.353 18.9687C77.3844 18.9687 76.5199 18.7214 75.7597 18.2267C75.0046 17.7268 74.4109 17.016 73.9787 16.0942C73.5517 15.1673 73.3382 14.0555 73.3382 12.7589C73.3382 11.4622 73.5543 10.3531 73.9865 9.43134C74.424 8.50963 75.0228 7.80402 75.7831 7.31452C76.5434 6.82503 77.4052 6.58028 78.3686 6.58028C79.1132 6.58028 79.7121 6.70525 80.1651 6.95521C80.6234 7.19996 80.9775 7.48637 81.2275 7.81444C81.4826 8.1425 81.6805 8.43152 81.8211 8.68147H81.9617V2.73719H84.2972V18.7344H82.0164V16.8676H81.8211C81.6805 17.1227 81.4774 17.4143 81.2118 17.7424C80.9515 18.0705 80.5922 18.3569 80.1339 18.6016C79.6756 18.8464 79.082 18.9687 78.353 18.9687ZM78.8685 16.9769C79.5403 16.9769 80.1079 16.7999 80.5713 16.4457C81.04 16.0864 81.3941 15.5891 81.6336 14.9538C81.8784 14.3185 82.0008 13.5791 82.0008 12.7355C82.0008 11.9023 81.881 11.1732 81.6414 10.5483C81.4019 9.92345 81.0504 9.43655 80.5869 9.08765C80.1235 8.73876 79.5507 8.56431 78.8685 8.56431C78.1655 8.56431 77.5797 8.74657 77.111 9.11109C76.6423 9.47561 76.2882 9.97292 76.0487 10.603C75.8143 11.2331 75.6972 11.9439 75.6972 12.7355C75.6972 13.5374 75.8169 14.2586 76.0565 14.8991C76.296 15.5397 76.6501 16.0474 77.1188 16.4223C77.5927 16.792 78.1759 16.9769 78.8685 16.9769Z" fill="currentColor"/>
<path d="M86.5308 18.7344V6.7365H88.8664V18.7344H86.5308ZM87.7103 4.88526C87.3041 4.88526 86.9552 4.74986 86.6636 4.47908C86.3772 4.20308 86.234 3.87502 86.234 3.49487C86.234 3.10952 86.3772 2.78146 86.6636 2.51067C86.9552 2.23468 87.3041 2.09668 87.7103 2.09668C88.1165 2.09668 88.4628 2.23468 88.7492 2.51067C89.0408 2.78146 89.1866 3.10952 89.1866 3.49487C89.1866 3.87502 89.0408 4.20308 88.7492 4.47908C88.4628 4.74986 88.1165 4.88526 87.7103 4.88526Z" fill="currentColor"/>
<path d="M95.9624 18.9766C94.8376 18.9766 93.856 18.7188 93.0176 18.2033C92.1792 17.6877 91.5283 16.9665 91.0648 16.0396C90.6014 15.1126 90.3696 14.0295 90.3696 12.7901C90.3696 11.5456 90.6014 10.4572 91.0648 9.52508C91.5283 8.59295 92.1792 7.86911 93.0176 7.35358C93.856 6.83804 94.8376 6.58028 95.9624 6.58028C97.0872 6.58028 98.0688 6.83804 98.9072 7.35358C99.7456 7.86911 100.397 8.59295 100.86 9.52508C101.323 10.4572 101.555 11.5456 101.555 12.7901C101.555 14.0295 101.323 15.1126 100.86 16.0396C100.397 16.9665 99.7456 17.6877 98.9072 18.2033C98.0688 18.7188 97.0872 18.9766 95.9624 18.9766ZM95.9702 17.016C96.6993 17.016 97.3033 16.8233 97.7824 16.4379C98.2615 16.0526 98.6156 15.5397 98.8447 14.8991C99.0791 14.2586 99.1962 13.553 99.1962 12.7823C99.1962 12.0168 99.0791 11.3138 98.8447 10.6733C98.6156 10.0276 98.2615 9.50945 97.7824 9.1189C97.3033 8.72834 96.6993 8.53306 95.9702 8.53306C95.236 8.53306 94.6267 8.72834 94.1424 9.1189C93.6633 9.50945 93.3066 10.0276 93.0723 10.6733C92.8432 11.3138 92.7286 12.0168 92.7286 12.7823C92.7286 13.553 92.8432 14.2586 93.0723 14.8991C93.3066 15.5397 93.6633 16.0526 94.1424 16.4379C94.6267 16.8233 95.236 17.016 95.9702 17.016Z" fill="currentColor"/>
<path d="M127.755 18.7344H105.758L116.474 1L127.755 18.7344Z" stroke="currentColor"/>
<path d="M116.482 5.67419V13.0979" stroke="currentColor"/>
<path d="M116.482 14.7476V16.5348" stroke="currentColor"/>
</symbol>
<symbol id="menu-close" viewBox="0 0 28 28"><path stroke="currentColor" fill="none" stroke-width="1.2" d="M23.9 23.9 14 14M4.1 4.1 14 14m0 0 9.9-9.9L4.1 23.9"/></symbol><symbol id="menu" viewBox="0 0 30 6"><path stroke="currentColor" fill="none" stroke-width="1.2" d="M0 1h30M0 5h30"/></symbol><symbol id="plus" viewBox="0 0 12 12"><path stroke="currentColor" fill="none" stroke-width="1.2" d="M6 12V0M0 6h12"/></symbol><symbol id="quote" viewBox="0 0 13 10"><path fill="currentColor" d="M9.813 10c-.518 0-.97-.087-1.356-.26a2.735 2.735 0 0 1-.937-.717 3.002 3.002 0 0 1-.555-1.038 4.214 4.214 0 0 1-.185-1.26c0-.89.132-1.694.395-2.411a7.26 7.26 0 0 1 1.047-1.916c.428-.56.9-1.038 1.418-1.434A8.492 8.492 0 0 1 11.193 0l.358.482c-.723.684-1.299 1.294-1.726 1.83-.427.527-.641.968-.641 1.322 0 .214.09.387.271.52.18.131.403.25.666.358.255.099.522.21.801.333s.534.289.764.495c.239.198.432.449.58.754.156.305.234.692.234 1.162 0 .28-.058.58-.173.902a2.677 2.677 0 0 1-.505.89 2.743 2.743 0 0 1-.838.68A2.434 2.434 0 0 1 9.813 10Zm-6.78 0c-.518 0-.97-.087-1.356-.26a2.735 2.735 0 0 1-.937-.717 3.002 3.002 0 0 1-.555-1.038A4.214 4.214 0 0 1 0 6.725c0-.89.131-1.694.394-2.411a7.26 7.26 0 0 1 1.048-1.916c.428-.56.9-1.038 1.418-1.434A8.491 8.491 0 0 1 4.413 0l.358.482c-.723.684-1.299 1.294-1.726 1.83-.427.527-.641.968-.641 1.322 0 .214.09.387.271.52.18.131.403.25.666.358.254.099.522.21.801.333s.534.289.764.495c.239.198.432.449.58.754.156.305.234.692.234 1.162 0 .28-.058.58-.173.902a2.677 2.677 0 0 1-.505.89 2.743 2.743 0 0 1-.838.68A2.434 2.434 0 0 1 3.033 10Z"/></symbol><symbol id="refresh" viewBox="0 0 14 14"><path stroke="currentColor" fill="none" stroke-width="1.2" d="M11.607 10.008a5.5 5.5 0 1 1 .679-4.535M12.5.5v5l-3.97-.493"/></symbol><symbol id="upload" viewBox="0 0 12 12"><g fill="none"><path stroke="currentColor" fill="none" stroke-width="1.2" d="M9 3.917 6 1m0 0L3 3.917M6 1v7M1 9v2h10V9"/></g></symbol></svg>