<?xml version="1.0" encoding="UTF-8"?><!DOCTYPE svg PUBLIC "-//W3C//DTD SVG 1.1//EN" "http://www.w3.org/Graphics/SVG/1.1/DTD/svg11.dtd"><svg xmlns="http://www.w3.org/2000/svg" xmlns:xlink="http://www.w3.org/1999/xlink"><symbol id="angle-left" viewBox="0 0 7 12"><g fill="none"><path d="M6 1 1 6l5 5" stroke="currentColor" stroke-width="1.2"/></g></symbol><symbol id="angle-right" viewBox="0 0 7 12"><path fill="none" stroke="currentColor" stroke-width="1.2" d="m1 1 5 5-5 5"/></symbol><symbol id="arrow-down-small" viewBox="0 0 10 10"><g fill="none"><path stroke="currentColor" fill="none" stroke-width="1.2" d="M9 5 5 9m0 0L1 5m4 4V1"/></g></symbol><symbol id="arrow-down" viewBox="0 0 14 14"><g fill="none"><path display="var(--is-visible--md-up)" d="m12 8-5 5m0 0L2 8m5 5V1" fill="none" stroke="currentColor" stroke-width="1.2"/><path display="var(--is-visible--sm-down)" d="m11 7-4 4m0 0L3 7m4 4V3" fill="none" stroke="currentColor" stroke-width="1.2"/></g></symbol><symbol id="arrow-left-small" viewBox="0 0 9 10"><path stroke="currentColor" fill="none" stroke-width="1.2" d="M5 9 1 5m0 0 4-4M1 5h8"/></symbol><symbol id="arrow-left" viewBox="0 0 13 12"><path fill="none" stroke="currentColor" stroke-width="1.2" d="M6 11 1 6m0 0 5-5M1 6h12"/></symbol><symbol id="arrow-right-small" viewBox="0 0 9 10"><path stroke="currentColor" fill="none" stroke-width="1.2" d="m4 9 4-4m0 0L4 1m4 4H0"/></symbol><symbol id="arrow-right" viewBox="0 0 13 12"><path stroke="currentColor" fill="none" stroke-width="1.2" d="m7 1 5 5m0 0-5 5m5-5H0"/></symbol><symbol id="arrow-up-small" viewBox="0 0 10 10"><g fill="none"><path stroke="currentColor" fill="none" stroke-width="1.2" d="M9 5 5 1m0 0L1 5m4-4v8"/></g></symbol><symbol id="arrow-up" viewBox="0 0 14 14"><path display="var(--is-visible--md-up)" d="m2 6 5-5m0 0 5 5M7 1v12" fill="none" stroke="currentColor" stroke-width="1.2"/><path display="var(--is-visible--sm-down)" d="M11 7 7 3m0 0L3 7m4-4v8" fill="none" stroke="currentColor" stroke-width="1.2"/></symbol><symbol id="award-awwwards" viewBox="0 0 60 60"><g fill="none"><path fill="currentColor" d="m35.121 24-1.834 7.796c-.153.612-.204 1.172-.204 1.172h-.051s-.051-.56-.204-1.172L30.841 24h-1.784l-2.038 7.796c-.153.663-.204 1.172-.204 1.172s-.05-.56-.204-1.172l-1.324-5.809-1.02 4.28 1.274 5.045h2.344l1.784-6.726c.204-.713.306-1.478.306-1.478h.05s.102.765.306 1.478l1.733 6.675h2.344L37.26 24h-2.14Zm12.739 0-1.834 7.796a8.676 8.676 0 0 0-.204 1.172h-.051s-.051-.56-.204-1.172L43.58 24h-1.784l-2.038 7.796c-.153.663-.204 1.172-.204 1.172s-.05-.56-.204-1.172l-1.376-5.86-1.019 4.28 1.274 5.096h2.344l1.784-6.726c.203-.713.305-1.478.305-1.478h.051s.102.765.306 1.478l1.733 6.675h2.344L50 24h-2.14Zm-27.72 7.796c.153.663.204 1.172.204 1.172h.05s.052-.56.205-1.172L22.433 24h2.09l-2.905 11.261h-2.344l-1.733-6.675c-.203-.713-.305-1.478-.305-1.478h-.051s-.102.765-.306 1.478l-1.732 6.675h-2.344L10 24h2.09l1.783 7.796c.153.663.203 1.172.203 1.172h.051s.051-.56.204-1.172L16.37 24h1.784l1.987 7.796Z"/></g></symbol><symbol id="award-behance" viewBox="0 0 60 60"><g fill="none"><path fill="currentColor" d="M27.493 29.361s2.46-.182 2.46-3.067c0-2.886-2.013-4.294-4.562-4.294H17v16.124h8.39s5.123.162 5.123-4.759c0 0 .223-4.004-3.02-4.004Zm-2.102-4.495s1.14 0 1.14 1.678c0 1.677-.67 1.92-1.431 1.92h-4.403v-3.598h4.694Zm-.237 10.393h-4.457v-4.31h4.694s1.7-.022 1.7 2.215c0 1.886-1.27 2.08-1.937 2.094Zm12.19-9.157c-6.2 0-6.195 6.196-6.195 6.196s-.426 6.164 6.195 6.164c0 0 5.518.315 5.518-4.288h-2.838s.095 1.733-2.585 1.733c0 0-2.838.19-2.838-2.805h8.355s.914-7-5.612-7ZM34.57 30.95s.346-2.485 2.837-2.485c2.49 0 2.46 2.486 2.46 2.486H34.57Zm5.958-6.014h-6.653V22.95h6.653v1.986Z"/></g></symbol><symbol id="award-ca" viewBox="0 0 60 60"><g fill="none"><path fill="currentColor" d="m26.26 31.583 1.88-.02.01 1.204c0 5.456-1.403 8.412-5.285 8.203-3.982-.219-5.923-3.394-5.864-11.04.02-3.504.339-6.221 1.484-8.222C19.59 19.777 21.342 19 23.392 19c1.523 0 2.658.597 3.594 1.633.936 1.075 1.463 2.638.916 4.29-.359 1.075-.498 1.523-1.165 2.1-.348.3-.966.429-1.314.399-.488-.04-1.852-.488-1.941-2.19-.04-.717.02-1.036.358-1.583.359-.578.946-.687 1.444-.687.11 0 .697.05 1.055.518 0 0 .15.139.309.467.04.08.09.24.189.27-.02 0 .07.079.08-.33.01-.258-.08-.577-.08-.616-.379-1.613-1.543-2.37-2.887-2.32-1.016.03-2.23.737-2.668 1.852-.408 1.154-.627 3.603-.627 6.47 0 3.265-.01 5.804.328 6.998.309 1.195.906 2.628 2.569 2.658 1.582.03 2.677-1.204 2.687-6.162l.02-1.184Z"/><path fill="currentColor" d="M31.157 21.28c-1.035.398-1.513 1.602-1.573 1.752-.06.139-.12.477-.12.597 0 .309.12.428.11.458.24-.528.647-1.085 1.384-1.205.567-.09.886-.01 1.224.25.17.129.339.278.458.467.21.348.289.587.289 1.135 0 .756-.13 1.264-.597 1.822-.498.557-.946.776-1.593.756-.747-.02-1.145-.269-1.732-.866-.588-.597-.836-1.384-.876-2.35-.07-1.642.527-2.876 1.682-3.882 1.175-1.025 2.578-1.184 4.31-1.194 2.021-.01 3.375.577 4.46 2.11.329.468.498.916.697 1.523.17.498.21 1.285.21 2.559l-.03 10.79c0 1.155-.24 2.828.776 2.838.338 0 .995 0 .975-1.643l-.02-3.394 1.364.03.02 2.08c.07 3.096-.289 5.047-3.414 5.077-1.563.02-2.847-.687-3.305-2.728C34.78 40.303 33.506 41 31.894 41c-1.245 0-2.708-.657-3.514-1.653-.807-.995-.777-2.419-.737-3.932.06-2.528 1.254-4.061 3.215-5.296l2.3-1.463c1.742-.995 2.737-2.588 2.737-4.22 0-.956-.258-1.753-.756-2.35-.498-.597-1.792-1.553-3.873-.836l-.109.03Zm4.629 7.396c-1.364 1.483-2.917 2.947-3.484 3.604-.578.667-1.215 1.891-1.324 2.687-.448 3.096.856 3.883 1.792 3.883 2.528 0 3.125-3.385 3.086-6.441l-.07-3.733Z"/></g></symbol><symbol id="award-cssda" viewBox="0 0 60 60"><g fill="none"><path fill="currentColor" d="m35.088 25.302-3.996-3.94-3.919 3.94h-2.24L33.255 17h-8.733l-8.366 8.303H13v.578h34.176v-.578H35.088ZM13 34.768h12.003l3.904 3.897 3.975-3.897h2.136L26.736 43h8.74l4.356-4.306 3.96-3.926h3.39v-.585H13v.585Zm6.618-5.85c.162 0 .317.021.458.07.141.05.29.106.43.17l.317-.825a2.736 2.736 0 0 0-1.198-.275c-.38 0-.719.085-1 .247-.283.162-.501.395-.65.698a2.382 2.382 0 0 0-.225 1.057c0 .641.155 1.135.465 1.473.31.338.762.507 1.347.507.408 0 .775-.07 1.1-.218v-.888c-.163.07-.325.127-.487.169-.162.05-.324.07-.5.07-.564 0-.853-.373-.853-1.12 0-.36.07-.642.211-.846.141-.204.338-.289.585-.289Zm4.638 2.27c-.184 0-.381-.029-.592-.085a2.895 2.895 0 0 1-.62-.24v.938c.19.091.373.155.542.19.176.035.388.056.649.056.31 0 .577-.049.81-.155.233-.105.402-.246.529-.437.12-.183.183-.401.183-.641 0-.26-.064-.48-.197-.648-.134-.17-.36-.332-.698-.487-.346-.155-.564-.267-.642-.33-.077-.057-.12-.128-.12-.205 0-.07.029-.127.092-.176.064-.05.162-.071.296-.071.261 0 .578.085.938.247l.317-.81a3.025 3.025 0 0 0-1.227-.276c-.45 0-.81.099-1.07.296-.262.198-.389.48-.389.832 0 .19.029.36.092.493.063.141.155.261.282.374.127.106.317.218.57.331.283.127.452.212.515.247a.65.65 0 0 1 .141.12.238.238 0 0 1 .043.14.239.239 0 0 1-.106.205c-.07.07-.183.092-.338.092Zm4.933 0c-.183 0-.38-.029-.592-.085a2.893 2.893 0 0 1-.62-.24v.938c.19.091.373.155.543.19.176.035.387.056.648.056.31 0 .578-.049.81-.155.233-.105.402-.246.53-.437.119-.183.182-.401.182-.641 0-.26-.063-.48-.197-.648-.134-.17-.36-.332-.698-.487-.345-.155-.564-.267-.641-.33-.078-.057-.12-.128-.12-.205a.21.21 0 0 1 .092-.176c.063-.05.162-.071.296-.071.26 0 .578.085.937.247l.317-.81a3.025 3.025 0 0 0-1.226-.276c-.451 0-.81.099-1.071.296-.261.198-.388.48-.388.832 0 .19.028.36.092.493.063.141.155.261.282.374.127.106.317.218.57.331.282.127.452.212.515.247a.646.646 0 0 1 .14.12.238.238 0 0 1 .043.14.239.239 0 0 1-.106.205c-.063.07-.183.092-.338.092Zm7.19-1.22c0-.599-.17-1.057-.508-1.374-.339-.317-.818-.48-1.438-.48h-1.34v3.87h1.255c.649 0 1.142-.176 1.502-.522.352-.345.528-.845.528-1.494Zm-1.305.888c-.148.184-.38.275-.697.275h-.233v-2.17h.303c.289 0 .5.084.641.253.141.17.212.437.212.79-.007.38-.078.662-.226.852Zm5.991.41.19.725h1.142l-1.283-3.89H39.72l-1.262 3.89h1.15l.197-.726h1.261Zm-.726-2.08c.05-.204.078-.352.092-.444.014.099.056.26.113.48.056.225.105.408.14.549l.17.634h-.825c.155-.606.26-1.015.31-1.219Z"/></g></symbol><symbol id="award-fwa" viewBox="0 0 60 60"><g fill="none"><path fill="currentColor" d="M38.257 32.44V30.79h4.954v1.651h-4.954Z"/><path fill="currentColor" fill-rule="evenodd" d="M20.917 32.624c.528 0 1.032-.16 1.445-.436l1.124 2.294a2.65 2.65 0 0 0 2.386 1.467 2.65 2.65 0 0 0 2.385-1.467l.917-1.858.918 1.858a2.65 2.65 0 0 0 2.385 1.467 2.65 2.65 0 0 0 2.385-1.467l.092-.207a2.656 2.656 0 0 0 2.477 1.674h6.606a2.662 2.662 0 0 0 2.66-2.66v-.642h.642c1.468 0 2.661-1.193 2.661-2.66s-1.193-2.661-2.66-2.661h-.643v-.642a2.662 2.662 0 0 0-2.66-2.661H35.78a2.65 2.65 0 0 0-2.385 1.468l-.918 1.835-.917-1.858A2.65 2.65 0 0 0 29.174 24a2.67 2.67 0 0 0-2.385 1.49l-.917 1.836-.918-1.858A2.65 2.65 0 0 0 22.57 24h-6.606a2.662 2.662 0 0 0-2.66 2.66v.643h-.642A2.662 2.662 0 0 0 10 29.963a2.663 2.663 0 0 0 2.66 2.66h.643v.643a2.662 2.662 0 0 0 2.66 2.66 2.663 2.663 0 0 0 2.66-2.66v-.642h2.294Zm16.514-3.486a.822.822 0 0 0-.825.825v3.303c0 .459.366.826.825.826h6.606a.822.822 0 0 0 .825-.826v-2.477h2.477a.822.822 0 0 0 .826-.826.822.822 0 0 0-.826-.825h-2.477V26.66a.822.822 0 0 0-.825-.825H35.78a.817.817 0 0 0-.734.458l-2.569 5.138-2.569-5.138a.817.817 0 0 0-1.468 0l-2.569 5.138-2.568-5.138a.817.817 0 0 0-.734-.458h-6.606a.822.822 0 0 0-.825.825v2.478H12.66a.822.822 0 0 0-.826.825c0 .459.367.826.826.826h2.477v2.477c0 .459.367.826.825.826a.822.822 0 0 0 .826-.826v-2.477h4.128a.822.822 0 0 0 .826-.826.822.822 0 0 0-.826-.825H16.79v-1.652h5.275l3.074 6.147a.817.817 0 0 0 1.468 0l2.568-5.115 2.57 5.115a.817.817 0 0 0 1.467 0l3.073-6.147h6.927v1.652h-5.78Z" clip-rule="evenodd"/></g></symbol><symbol id="award-golden-site" viewBox="0 0 60 60"><g fill="none"><path fill="currentColor" d="M31.29 26.125c1.091.497 2.418-.024 2.916-1.21a2.252 2.252 0 0 0-1.161-2.962c-1.09-.498-2.418.023-2.916 1.209-.45 1.137.048 2.465 1.162 2.963ZM17.804 37.407c-.284-.142-.64 0-.758.332-.119.332 0 .664.332.782.284.143.64 0 .782-.331a.715.715 0 0 0-.356-.783Zm8.344-21.238c.284.142.64 0 .782-.332.119-.332 0-.664-.332-.782-.332-.142-.64 0-.782.332a.603.603 0 0 0 .332.782Zm6.163 27.662c-.285-.142-.64 0-.782.332-.119.332 0 .664.332.782.284.142.64 0 .782-.332.07-.284-.048-.663-.332-.782Zm10.003-21.83c-.285-.143-.64 0-.782.33-.119.333 0 .665.331.783.285.142.64 0 .783-.332.094-.26-.048-.616-.332-.782Z"/><path fill="currentColor" d="M40.701 22.403c-.521-.26-1.138.024-1.327.545-.095.285-.119.522-.024.759-.19-.356-.522-.735-.924-.877-.949-.403-2.087.023-2.466.995a1.93 1.93 0 0 0-.118 1.09c-1.09 1.28-2.37 2.087-3.508 2.229a3.33 3.33 0 0 1-.688 0 2.102 2.102 0 0 1-.687-.19c-1.09-.498-1.754-1.801-1.897-3.508-.023-.332-.07-.758-.023-1.09 0-.166.023-.332.023-.474.332-.19.546-.498.735-.854.403-.972-.023-2.11-.972-2.512a1.71 1.71 0 0 0-1.28-.071c.261-.095.403-.285.522-.546.26-.521-.024-1.161-.545-1.35-.522-.261-1.138.023-1.328.544-.26.522.024 1.162.546 1.352.213.094.45.118.663.07-.45.19-.83.546-1.019 1.02-.332.83-.095 1.778.593 2.3-.024.141-.024.284-.024.402-.024.474-.024.948.024 1.375.142 1.754.758 3.271 1.777 4.314-1.09.071-2.228.593-3.318 1.47-1.28 1.019-2.513 2.607-3.508 4.527a1.86 1.86 0 0 0-1.47 1.138c-.213.474-.19 1.019-.024 1.47a1.313 1.313 0 0 0-.497-.451c-.522-.26-1.138.024-1.328.545-.26.522.024 1.162.545 1.351.522.261 1.138-.023 1.328-.545.095-.284.118-.521.023-.758.19.355.522.734.925.877.948.403 2.086-.024 2.465-.996.166-.403.19-.83.095-1.232.806-1.755 1.849-3.13 2.963-4.03.948-.782 1.849-1.138 2.489-.83.332.143.592.474.782.877.095.214.166.474.26.759.333 1.493.072 3.579-.782 5.736-.331.19-.64.521-.805.924-.403.972.023 2.11.971 2.513.403.19.854.213 1.28.071-.26.095-.403.285-.521.545-.26.522.024 1.162.545 1.351.522.261 1.138-.023 1.327-.545.261-.521-.023-1.161-.545-1.35a1.076 1.076 0 0 0-.663-.072c.45-.19.83-.545 1.019-1.02.284-.64.166-1.327-.19-1.895.877-2.466 1.138-4.954.759-6.827a8.407 8.407 0 0 0-.356-1.233c-.19-.403-.403-.806-.664-1.137.285 0 .546 0 .806-.072 1.66-.213 3.366-1.232 4.789-2.844a1.898 1.898 0 0 0 2.038-1.138c.213-.474.19-1.019.024-1.47.095.19.284.332.498.451.521.26 1.137-.024 1.327-.545.095-.261-.142-.901-.64-1.138Z"/></g></symbol><symbol id="award-runeta" viewBox="0 0 60 60"><g fill="none"><path fill="currentColor" d="M39.963 26.889h-.778v-1.037h-1.037v-1.296h-2.074v-1.037h-3.111v-1.037H30.37v-5.704h-1.037V16h-3.11v.778h-1.038v12.185h-1.037v-.778H20v4.408h1.296v1.296h1.297v2.333h1.037v2.334h1.296v2.074h1.296V44H37.89v-4.926h1.037v-3.63h1.037V26.89ZM27.778 42.444v-2.592h-1.296v-2.074h-1.297v-2.334h-1.037v-2.333h-1.296v-1.296h-1.296V29.74h2.074v1.296h1.555v3.111h1.556V17.556h2.074v11.666h1.555v-5.185h1.815v5.185h1.556v-4.148h1.555v1.037h2.074v1.296h1.037v7.26H37.37v3.889h-1.037v3.888h-8.555Z"/></g></symbol><symbol id="award-tagline" viewBox="0 0 60 60"><g fill="none"><path fill="currentColor" fill-rule="evenodd" d="M27.746 18 19 34.475 21.807 42l9.6-.57 9.518-14.644L27.745 18Zm-2.847 21.437h-.164c-.244 0-.487-.081-.732-.204a2.23 2.23 0 0 1-1.383-2.074 2.272 2.272 0 0 1 2.279-2.277 2.274 2.274 0 0 1 2.277 2.277 2.274 2.274 0 0 1-2.277 2.278Z" clip-rule="evenodd"/></g></symbol><symbol id="check" viewBox="0 0 10 8"><path fill="none" stroke="currentColor" stroke-width="1.2" d="m1 4 3 3 5-6"/></symbol><symbol id="close" viewBox="0 0 11 20"><path stroke="currentColor" fill="none" stroke-width="1.2" d="M9.743 14.243 5.5 10M1.257 5.757 5.5 10m0 0 4.243-4.243-8.486 8.486"/></symbol><symbol id="download" viewBox="0 0 12 12"><path stroke="currentColor" fill="none" stroke-width="1.2" d="M9 5.083 6 8m0 0L3 5.083M6 8V1M1 9v2h10V9"/></symbol><symbol id="error-circle" viewBox="0 0 30 30"><g fill="none"><rect width="29" height="29" x=".5" y=".5" stroke="currentColor" fill="none" rx="14.5"/><path stroke="currentColor" fill="none" stroke-width="1.2" d="m19.243 19.243-8.486-8.486m0 8.486 8.486-8.486"/></g></symbol><symbol id="example-arrow" viewBox="0 0 20 20"><g fill="none"><path d="m8 4 6 6-6 6" stroke="currentColor" stroke-width="2" stroke-linecap="round" stroke-linejoin="round" fill="none"/></g></symbol><symbol id="example-close" viewBox="0 0 40 40"><g fill="none"><path display="var(--is-visible--sm-down)" d="M26 14 14 26m0-12 12 12" fill="none" stroke="currentColor" stroke-width="1.2"/><path display="var(--is-visible--md-up)" d="M25 15 15 25m0-10 10 10" fill="none" stroke="currentColor" stroke-width="1.2"/></g></symbol><symbol id="example-zoom-in" viewBox="0 0 24 24"><g fill="none"><rect x="9" y="1" width="6" height="22" rx="2" fill="currentColor"/><rect x="1" y="15" width="6" height="22" rx="2" transform="rotate(-90 1 15)" fill="currentColor"/></g></symbol><symbol id="example-zoom-out" viewBox="0 0 24 24"><g fill="none"><rect x="1" y="15" width="6" height="22" rx="2" transform="rotate(-90 1 15)" fill="currentColor"/></g></symbol><symbol id="file" viewBox="0 0 10 14"><path fill="none" stroke="currentColor" stroke-width="1.2" d="M4.941 1H1v12h8V5.174M4.941 1 9 5.174M4.941 1v4.174H9"/></symbol><symbol id="logo" viewBox="0 0 68 14"><g fill="none"><path fill="currentColor" d="M.368 1.56 4.224 13h2.464L10.56 1.56h-2l-2.992 9.28-2.976-9.28H.368Zm11.02 3.072V13h1.936V4.632h-1.936Zm.944-1.376c.64 0 1.152-.48 1.152-1.104 0-.64-.512-1.12-1.152-1.12-.64 0-1.152.48-1.152 1.12 0 .624.512 1.104 1.152 1.104Zm5.91 9.904c1.248 0 2.288-.736 2.752-1.568V13h1.936V.76h-1.936v5.152c-.464-.832-1.312-1.456-2.672-1.456-2.176 0-3.76 1.68-3.76 4.368v.128c0 2.736 1.584 4.208 3.68 4.208Zm.48-1.536c-1.264 0-2.176-.88-2.176-2.72v-.128c0-1.808.832-2.8 2.256-2.8 1.408 0 2.256.896 2.256 2.752v.128c0 1.872-.992 2.768-2.336 2.768Zm9.612 1.536c2.16 0 3.568-.944 3.84-2.72h-1.872c-.144.816-.752 1.28-1.92 1.28-1.456 0-2.24-.88-2.304-2.48h6.128v-.56c0-2.992-1.872-4.224-3.952-4.224-2.384 0-4.16 1.728-4.16 4.32v.128c0 2.624 1.76 4.256 4.24 4.256Zm1.952-5.216H26.11c.192-1.296.976-2.08 2.144-2.08 1.216 0 1.92.624 2.032 2.08Zm6.53-6.384V13h2.145V1.56h-2.144Zm4.105 3.072V13h1.936V8.072c0-1.328.88-2 1.968-2 1.152 0 1.664.56 1.664 1.84V13h1.936V7.736c0-2.304-1.184-3.28-2.864-3.28-1.392 0-2.304.688-2.704 1.504V4.632h-1.936Zm9.493 1.456V13h1.936V6.088h1.904V4.632H52.35v-1.2c0-.72.32-1.232 1.104-1.232.368 0 .64.064.88.144V.84A3.343 3.343 0 0 0 53.23.68c-1.808 0-2.816.976-2.816 2.832v1.12h-1.136v1.456h1.136Zm4.884-1.456V13h1.936V8.648c0-1.76 1.008-2.336 2.72-2.336V4.504c-1.408.016-2.192.624-2.72 1.696V4.632h-1.936Zm7.817 8.528c1.28 0 2-.464 2.56-1.184V13h1.904V7.512c0-2.304-1.472-3.056-3.344-3.056-1.872 0-3.408.816-3.584 2.768h1.872c.112-.832.576-1.312 1.6-1.312 1.152 0 1.52.544 1.52 1.68v.432h-1.04c-2.384 0-4.288.704-4.288 2.656 0 1.744 1.264 2.48 2.8 2.48Zm.464-1.392c-.96 0-1.344-.464-1.344-1.168 0-1.024.944-1.36 2.416-1.36h.992v.832c0 1.088-.864 1.696-2.064 1.696Z"/></g></symbol><symbol id="menu-close" viewBox="0 0 28 28"><path stroke="currentColor" fill="none" stroke-width="1.2" d="M23.9 23.9 14 14M4.1 4.1 14 14m0 0 9.9-9.9L4.1 23.9"/></symbol><symbol id="menu" viewBox="0 0 30 6"><path stroke="currentColor" fill="none" stroke-width="1.2" d="M0 1h30M0 5h30"/></symbol><symbol id="plus" viewBox="0 0 12 12"><path stroke="currentColor" fill="none" stroke-width="1.2" d="M6 12V0M0 6h12"/></symbol><symbol id="quote" viewBox="0 0 13 10"><path fill="currentColor" d="M9.813 10c-.518 0-.97-.087-1.356-.26a2.735 2.735 0 0 1-.937-.717 3.002 3.002 0 0 1-.555-1.038 4.214 4.214 0 0 1-.185-1.26c0-.89.132-1.694.395-2.411a7.26 7.26 0 0 1 1.047-1.916c.428-.56.9-1.038 1.418-1.434A8.492 8.492 0 0 1 11.193 0l.358.482c-.723.684-1.299 1.294-1.726 1.83-.427.527-.641.968-.641 1.322 0 .214.09.387.271.52.18.131.403.25.666.358.255.099.522.21.801.333s.534.289.764.495c.239.198.432.449.58.754.156.305.234.692.234 1.162 0 .28-.058.58-.173.902a2.677 2.677 0 0 1-.505.89 2.743 2.743 0 0 1-.838.68A2.434 2.434 0 0 1 9.813 10Zm-6.78 0c-.518 0-.97-.087-1.356-.26a2.735 2.735 0 0 1-.937-.717 3.002 3.002 0 0 1-.555-1.038A4.214 4.214 0 0 1 0 6.725c0-.89.131-1.694.394-2.411a7.26 7.26 0 0 1 1.048-1.916c.428-.56.9-1.038 1.418-1.434A8.491 8.491 0 0 1 4.413 0l.358.482c-.723.684-1.299 1.294-1.726 1.83-.427.527-.641.968-.641 1.322 0 .214.09.387.271.52.18.131.403.25.666.358.254.099.522.21.801.333s.534.289.764.495c.239.198.432.449.58.754.156.305.234.692.234 1.162 0 .28-.058.58-.173.902a2.677 2.677 0 0 1-.505.89 2.743 2.743 0 0 1-.838.68A2.434 2.434 0 0 1 3.033 10Z"/></symbol><symbol id="refresh" viewBox="0 0 14 14"><path stroke="currentColor" fill="none" stroke-width="1.2" d="M11.607 10.008a5.5 5.5 0 1 1 .679-4.535M12.5.5v5l-3.97-.493"/></symbol><symbol id="upload" viewBox="0 0 12 12"><g fill="none"><path stroke="currentColor" fill="none" stroke-width="1.2" d="M9 3.917 6 1m0 0L3 3.917M6 1v7M1 9v2h10V9"/></g></symbol></svg>