<svg xmlns="http://www.w3.org/2000/svg" fill="none" width="79" height="60" viewBox="0 0 79 60">
    <path fill="currentColor"
          d="m50.9732 19.1597-9.222-9.0919-9.0431 9.0919h-5.1722L46.7444 0H26.5926L7.28653 19.1597H0v1.3337h78.8669v-1.3337H50.9732ZM0 41.003h27.6986l9.0105 8.9943 9.1733-8.9943h4.9281L31.6996 60h20.1681l10.0515-9.9376 9.1407-9.0594h7.8233v-1.35H0v1.35ZM15.2724 27.5034c.3741 0 .7319.0488 1.0572.1626.3253.1139.6669.244.9922.3904l.7319-1.903c-.8783-.4228-1.8054-.6343-2.765-.6343-.8783 0-1.659.1952-2.3096.5693-.6506.3741-1.1548.9108-1.4963 1.6102-.3416.6993-.5205 1.5126-.5205 2.4397 0 1.48.3578 2.6185 1.0735 3.3992.7156.7807 1.7566 1.1711 3.1065 1.1711.9434 0 1.7891-.1627 2.5373-.5042v-2.0493c-.3741.1626-.7482.2927-1.1223.3903-.3741.1139-.7481.1627-1.1548.1627-1.3011 0-1.968-.8621-1.968-2.5861 0-.8295.1627-1.4801.488-1.9518.3253-.4716.7807-.6668 1.3499-.6668ZM25.9745 32.7406c-.4229 0-.8783-.0651-1.3662-.1952-.4879-.1301-.9759-.309-1.4313-.553v2.1632c.4392.2114.862.3578 1.2524.4391.4066.0814.8945.1302 1.4963.1302.7157 0 1.3337-.1139 1.8705-.3579.5367-.2439.927-.5692 1.2198-1.0084.2765-.4228.4229-.927.4229-1.48 0-.6018-.1464-1.106-.4554-1.4964-.3091-.3903-.8295-.7644-1.6102-1.1222-.797-.3579-1.3012-.6181-1.4801-.7645-.1789-.1301-.2765-.2927-.2765-.4716 0-.1627.0651-.2928.2114-.4067.1464-.1138.3741-.1626.6831-.1626.6018 0 1.3337.1952 2.1632.5693l.7319-1.8705c-.9596-.4228-1.9029-.6343-2.83-.6343-1.0409 0-1.8704.2277-2.4722.6831-.6018.4554-.8946 1.106-.8946 1.9192 0 .4392.0651.8295.2115 1.1386.1464.3253.3578.6018.6506.862.2927.244.7319.5042 1.3174.7644.6506.2928 1.0409.488 1.1873.5693.1464.0976.2602.1952.3253.2765.0651.0976.0976.1952.0976.3253 0 .1951-.0813.3578-.244.4716-.1626.1627-.4229.2115-.7807.2115ZM37.3597 32.7406c-.4229 0-.8783-.0651-1.3662-.1952-.4879-.1301-.9759-.309-1.4313-.553v2.1632c.4392.2114.862.3578 1.2524.4391.4066.0814.8945.1302 1.4963.1302.7157 0 1.3337-.1139 1.8705-.3579.5367-.2439.927-.5692 1.2198-1.0084.2765-.4228.4229-.927.4229-1.48 0-.6018-.1464-1.106-.4554-1.4964-.3091-.3903-.8295-.7644-1.6102-1.1222-.797-.3579-1.3012-.6181-1.4801-.7645-.1789-.1301-.2765-.2927-.2765-.4716 0-.1627.0651-.2928.2114-.4067.1464-.1138.3741-.1626.6832-.1626.6017 0 1.3336.1952 2.1631.5693l.7319-1.8705c-.9596-.4228-1.9029-.6343-2.83-.6343-1.0409 0-1.8704.2277-2.4722.6831-.6018.4554-.8946 1.106-.8946 1.9192 0 .4392.0651.8295.2115 1.1386.1464.3253.3578.6018.6506.862.2927.244.7319.5042 1.3174.7644.6506.2928 1.0409.488 1.1873.5693.1464.0976.2602.1952.3253.2765.0651.0976.0976.1952.0976.3253 0 .1951-.0813.3578-.244.4716-.1464.1627-.4229.2115-.7807.2115ZM53.9496 29.9268c0-1.3825-.3904-2.4397-1.1711-3.1716s-1.8867-1.106-3.3179-1.106h-3.0903v8.9293h2.8951c1.4963 0 2.6348-.4066 3.4643-1.2036.8133-.797 1.2199-1.9518 1.2199-3.4481Zm-3.009 2.0493c-.3415.4229-.8782.6344-1.6102.6344h-.5367V27.601h.6994c.6668 0 1.1548.1952 1.4801.5855.3253.3904.4879 1.0084.4879 1.8216-.0163.8783-.1789 1.5289-.5205 1.968ZM64.7655 32.9195l.4392 1.6752h2.6348l-2.9601-8.978H61.659l-2.9114 8.978h2.6512l.4554-1.6752h2.9113Zm-1.6752-4.7981c.1138-.4716.1789-.8132.2114-1.0246.0325.2277.1301.6018.2602 1.106.1302.5204.244.9433.3253 1.2686l.3904 1.4638h-1.903c.3578-1.3987.6018-2.3421.7157-2.8138Z"/>
</svg>
