<svg width="110" height="110" viewBox="0 0 110 110" fill="none" xmlns="http://www.w3.org/2000/svg">
    <path d="M91.3303 57.6697H77.7064V62.211H91.3303V57.6697Z" fill="currentColor"/>
    <path
        d="M102.683 48.0826H100.917V46.3165C100.917 42.2798 97.6376 39 93.6009 39H70.8945C67.9931 39 65.5333 40.703 64.3349 43.0367L61.8119 48.0826L59.289 42.9736C58.0906 40.6399 55.6307 39 52.7294 39C49.828 39 47.3681 40.703 46.1697 43.0367L43.6468 48.0826L41.1239 42.9736C39.9255 40.6399 37.4656 39 34.5642 39H16.3991C12.3624 39 9.08257 42.2798 9.08257 46.3165V48.0826H7.31651C3.27982 48.0826 0 51.3624 0 55.3991C0 59.4358 3.27982 62.7156 7.31651 62.7156H9.08257V64.4817C9.08257 68.5184 12.3624 71.7982 16.3991 71.7982C20.4358 71.7982 23.7156 68.5184 23.7156 64.4817V62.7156H30.0229C31.4736 62.7156 32.8612 62.2741 33.9966 61.5172L37.0872 67.7615C38.2856 70.1583 40.7454 71.7982 43.6468 71.7982C46.5482 71.7982 49.008 70.1583 50.2064 67.7615L52.7294 62.6525L55.2523 67.7615C56.4507 70.1583 58.9106 71.7982 61.8119 71.7982C64.7133 71.7982 67.1732 70.1583 68.3716 67.7615L68.6239 67.1938C69.6961 69.906 72.3452 71.7982 75.4358 71.7982H93.6009C97.6376 71.7982 100.917 68.5184 100.917 64.4817V62.7156H102.683C106.72 62.7156 110 59.4358 110 55.3991C110 51.3624 106.72 48.0826 102.683 48.0826ZM102.683 57.6697H95.8716V64.4817C95.8716 65.7431 94.8624 66.7523 93.6009 66.7523H75.4358C74.1743 66.7523 73.1651 65.7431 73.1651 64.4817V55.3991C73.1651 54.1376 74.1743 53.1284 75.4358 53.1284H91.3303V48.5872H72.2821L63.8303 65.4908C63.4518 66.2477 62.695 66.7523 61.8119 66.7523C60.9289 66.7523 60.172 66.2477 59.7936 65.4908L52.7294 51.4255L45.6651 65.4908C45.2867 66.2477 44.5298 66.7523 43.6468 66.7523C42.7638 66.7523 42.0069 66.2477 41.6284 65.4908L33.1766 48.5872H18.6697V53.1284H30.0229C31.2844 53.1284 32.2936 54.1376 32.2936 55.3991C32.2936 56.6606 31.2844 57.6697 30.0229 57.6697H18.6697V64.4817C18.6697 65.7431 17.6606 66.7523 16.3991 66.7523C15.1376 66.7523 14.1284 65.7431 14.1284 64.4817V57.6697H7.31651C6.05505 57.6697 5.04587 56.6606 5.04587 55.3991C5.04587 54.1376 6.05505 53.1284 7.31651 53.1284H14.1284V46.3165C14.1284 45.055 15.1376 44.0459 16.3991 44.0459H34.5642C35.4472 44.0459 36.2041 44.5505 36.5826 45.3073L43.6468 59.4358L50.711 45.3073C51.0895 44.5505 51.8463 44.0459 52.7294 44.0459C53.6124 44.0459 54.3693 44.5505 54.7477 45.3073L61.8119 59.4358L68.8761 45.3073C69.2546 44.5505 70.0115 44.0459 70.8945 44.0459H93.6009C94.8624 44.0459 95.8716 45.055 95.8716 46.3165V53.1284H102.683C103.945 53.1284 104.954 54.1376 104.954 55.3991C104.954 56.6606 103.945 57.6697 102.683 57.6697Z"
        fill="currentColor"/>
</svg>
