<svg xmlns="http://www.w3.org/2000/svg" fill="none" width="90" height="26" viewBox="0 0 90 26">
    <path fill="currentColor"
          d="m56.5223 0-4.1274 17.5414c-.3439 1.3758-.4586 2.6369-.4586 2.6369h-.1147s-.1146-1.2611-.4586-2.6369L46.8917 0H42.879l-4.586 17.5414c-.344 1.4904-.4586 2.6369-.4586 2.6369s-.1147-1.2611-.4586-2.6369L34.3949 4.47134l-2.293 9.63056 2.8663 11.3503h5.2738l4.0128-15.1337c.4586-1.60512.6879-3.32487.6879-3.32487h.1146s.2293 1.71975.6879 3.32487l3.8981 15.0191h5.2739L61.3376 0h-4.8153ZM85.1847 0l-4.1274 17.5414c-.3439 1.3758-.4586 2.6369-.4586 2.6369h-.1146s-.1147-1.2611-.4586-2.6369L75.5541 0h-4.0127l-4.586 17.5414c-.3439 1.4904-.4586 2.6369-.4586 2.6369s-.1146-1.2611-.4586-2.6369L62.9427 4.35669l-2.293 9.63061 2.8662 11.4649h5.2739l4.0128-15.1337c.4585-1.60512.6878-3.32487.6878-3.32487h.1147s.2293 1.71975.6879 3.32487l3.8981 15.0191h5.2739L90 0h-4.8153ZM22.8153 17.5414c.3439 1.4904.4586 2.6369.4586 2.6369h.1146s.1147-1.2611.4586-2.6369L27.9745 0h4.7007l-6.5351 25.3376h-5.2739l-3.898-15.0191c-.4586-1.60512-.6879-3.32487-.6879-3.32487h-.1147s-.2293 1.71975-.6879 3.32487l-3.8981 15.0191H6.30573L0 0h4.70064l4.01273 17.5414c.34395 1.4904.4586 2.6369.4586 2.6369h.11465s.11465-1.2611.4586-2.6369L14.3312 0h4.0127l4.4714 17.5414Z"/>
</svg>
