<svg width="512" height="512" viewBox="0 0 512 512" fill="none" xmlns="http://www.w3.org/2000/svg">
<path fill-rule="evenodd" clip-rule="evenodd" d="M256 512C397.385 512 512 397.385 512 256C512 114.615 397.385 0 256 0C114.615 0 0 114.615 0 256C0 397.385 114.615 512 256 512ZM376.125 128C376.125 145.673 361.798 160 344.125 160C326.452 160 312.125 145.673 312.125 128C312.125 110.327 326.452 96 344.125 96C361.798 96 376.125 110.327 376.125 128ZM96 192H144L200.062 326.55L256.125 192H304.125L224.125 384H176L96 192ZM368.125 192V384H320.125V192H368.125Z" fill="#191B1D"/>
</svg>
