<svg xmlns="http://www.w3.org/2000/svg" fill="none" width="84" height="50" viewBox="0 0 84 50">
    <g fill="#191B1D" clip-path="url(#a)">
        <path
            d="M23.7376 18.2418c0 1.0165.1099 1.8407.3022 2.4451.2198.6044.4945 1.2637.8792 1.978.1373.2198.1923.4395.1923.6319 0 .2747-.1649.5494-.522.8241l-1.7308 1.1539c-.2472.1648-.4945.2472-.7143.2472-.2747 0-.5494-.1373-.8241-.3846-.3847-.4121-.7143-.8516-.9891-1.2912-.2747-.467-.5494-.989-.8516-1.6209-2.1429 2.5275-4.8352 3.7912-8.0769 3.7912-2.30772 0-4.14838-.6593-5.49453-1.978C4.56181 22.7198 3.875 20.9616 3.875 18.7638c0-2.3352.82418-4.2308 2.5-5.6594 1.67582-1.4285 3.9011-2.1428 6.7308-2.1428.934 0 1.8956.0824 2.9121.2198 1.0164.1373 2.0604.3571 3.1593.6044V9.78027c0-2.08791-.4396-3.54396-1.2912-4.39561-.8791-.85164-2.3626-1.26373-4.478-1.26373-.9616 0-1.9506.10989-2.9671.35714-1.01645.24725-2.00546.54945-2.967.93407-.43956.1923-.76923.30219-.96154.35714-.1923.05494-.32967.08242-.43956.08242-.38461 0-.57692-.27473-.57692-.85165V3.65389c0-.43956.05494-.76923.19231-.96153.13736-.19231.38461-.38462.76923-.57693.96154-.4945 2.11538-.90659 3.46154-1.236261C11.2651.522026 12.6937.357191 14.2047.357191c3.2692 0 5.6593.741759 7.1978 2.225279 1.511 1.48351 2.2802 3.73626 2.2802 6.75824v8.90109h.0549Zm-11.1538 4.1758c.9066 0 1.8407-.1648 2.8297-.4945.989-.3296 1.8681-.934 2.6099-1.7582.4395-.522.7692-1.0989.934-1.7583.1649-.6593.2747-1.456.2747-2.3901v-1.1538c-.7967-.1923-1.6483-.3572-2.5274-.467-.8792-.1099-1.7308-.1649-2.5824-.1649-1.8407 0-3.1869.3572-4.0935 1.0989-.90655.7418-1.34611 1.7857-1.34611 3.1594 0 1.2912.32967 2.2527 1.01649 2.912.65932.6869 1.62092 1.0165 2.88462 1.0165Zm22.0604 2.9671c-.4945 0-.8241-.0825-1.0439-.2748-.2198-.1648-.4121-.5494-.5769-1.0714L26.5673 2.80225c-.1648-.54945-.2472-.9066-.2472-1.09891 0-.43956.2197-.68681.6593-.68681h2.6923c.522 0 .8791.08242 1.0714.27473.2198.16483.3846.54945.5495 1.07143L35.908 20.5495l4.2857-18.18681c.1373-.54945.3022-.9066.522-1.07143.2197-.16484.6044-.27473 1.0989-.27473h2.1978c.5219 0 .8791.08242 1.0989.27473.2197.16483.4121.54945.5219 1.07143l4.3407 18.40661 4.7527-18.40661c.1649-.54945.3572-.9066.5495-1.07143.2198-.16484.5769-.27473 1.0714-.27473h2.555c.4395 0 .6868.21978.6868.68681 0 .13737-.0275.27473-.055.43957-.0274.16483-.0824.38461-.1923.68681L52.7212 24.066c-.1649.5494-.3572.9066-.577 1.0714-.2197.1648-.5769.2747-1.0439.2747h-2.3627c-.5219 0-.8791-.0824-1.0989-.2747-.2197-.1923-.412-.5494-.5219-1.0989L42.8585 6.31873 38.6278 24.011c-.1374.5495-.3022.9066-.522 1.0989-.2198.1923-.6044.2748-1.0989.2748h-2.3627Zm35.3022.7417c-1.4285 0-2.8571-.1648-4.2307-.4945-1.3737-.3297-2.4451-.6868-3.1594-1.0989-.4395-.2472-.7417-.522-.8516-.7692-.1099-.2473-.1649-.522-.1649-.7692v-1.4011c0-.577.2198-.8517.6319-.8517.1648 0 .3297.0275.4945.0824.1648.055.4121.1649.6868.2747.9341.4121 1.9506.7418 3.022.9616 1.0989.2198 2.1703.3297 3.2692.3297 1.7308 0 3.077-.3022 4.011-.9066.9341-.6044 1.4286-1.4836 1.4286-2.6099 0-.7693-.2473-1.4011-.7418-1.9231-.4945-.522-1.4285-.989-2.7747-1.4286l-3.9835-1.2362c-2.0055-.6319-3.489-1.566-4.3956-2.8022-.9066-1.2088-1.3736-2.55498-1.3736-3.98355 0-1.15385.2472-2.17033.7417-3.04945.4945-.87912 1.1539-1.64835 1.978-2.25275.8242-.63187 1.7583-1.0989 2.8572-1.428571 1.0989-.32967 2.2527-.467033 3.4615-.467033.6044 0 1.2363.027473 1.8407.10989.6319.082418 1.2088.192308 1.7857.302198.5494.137363 1.0714.274725 1.5659.439556.4945.16484.8792.32967 1.1539.49451.3846.21978.6593.43956.8242.68681.1648.21978.2472.52198.2472.9066v1.2912c0 .57693-.2198.87913-.6319.87913-.2197 0-.5769-.10989-1.0439-.32967-1.566-.71429-3.3242-1.07143-5.2747-1.07143-1.566 0-2.8022.24725-3.6539.76923-.8516.52198-1.2912 1.31868-1.2912 2.44505 0 .76923.2747 1.42857.8242 1.95055.5494.52198 1.5659 1.04393 3.022 1.51103l3.9011 1.2362c1.978.6319 3.4065 1.511 4.2582 2.6374.8516 1.1264 1.2637 2.4176 1.2637 3.8461 0 1.1814-.2472 2.2528-.7143 3.1869-.4945.934-1.1538 1.7582-2.0054 2.4175-.8517.6868-1.8682 1.1814-3.0495 1.5385-1.2363.3846-2.5275.5769-3.9286.5769Z"/>
        <path fill-rule="evenodd"
              d="M75.1381 39.4779c-9.0385 6.6758-22.1703 10.2198-33.4615 10.2198-15.8242 0-30.0824-5.8517-40.851677-15.577-.8516481-.7692-.082418-1.8131.934067-1.2087C13.4073 39.6702 27.7755 43.7636 42.6381 43.7636c10.0275 0 21.044-2.0879 31.1813-6.3736 1.511-.6868 2.8022.989 1.3187 2.0879Z"
              clip-rule="evenodd"/>
        <path fill-rule="evenodd"
              d="M78.9024 35.1922c-1.1538-1.4835-7.6373-.7143-10.5769-.3571-.8791.1099-1.0165-.6594-.2198-1.2363 5.1649-3.6264 13.6539-2.5824 14.6429-1.3736.989 1.2362-.2747 9.7253-5.1099 13.7912-.7418.6319-1.456.3022-1.1264-.522 1.0989-2.7198 3.544-8.8461 2.3901-10.3022Z"
              clip-rule="evenodd"/>
    </g>
    <defs>
        <clipPath id="a">
            <path fill="#fff" d="M0 0h83.5165v50H0z"/>
        </clipPath>
    </defs>
</svg>
