<svg xmlns="http://www.w3.org/2000/svg" fill="none" width="138" height="40" viewBox="0 0 138 40">
    <path fill="#191B1D"
          d="M50.6481 27.5s2.4039 2.7884 5.8654 2.7884c2.2116 0 3.9423-1.3461 3.9423-3.4615 0-4.9039-11.25-4.1346-11.25-11.3462 0-3.4615 3.077-6.24999 7.4039-6.24999 2.5 0 6.6346 1.15389 6.6346 4.32689v1.9231h-3.0769V14.423c0-1.25-1.7308-2.1154-3.5577-2.1154-2.5 0-4.0385 1.3462-4.0385 3.1731 0 4.7116 11.1539 3.6539 11.1539 11.25 0 3.5577-2.7885 6.6346-7.4039 6.6346-4.9038 0-7.6923-3.4615-7.6923-3.4615L50.6481 27.5Zm18.4616 9.5192c1.25 0 2.3077-.9615 2.8846-2.4039l.7692-1.8269-5.673-13.1731c-.1923-.4807-.4808-.673-1.0577-.673h-.3846v-2.6924h1.923c1.3462 0 1.827.3847 2.4039 1.6347l3.75 9.423c.2884.8654.5769 2.0193.5769 2.0193h.0962s.1923-1.1539.5769-2.0193l3.4615-9.423c.4808-1.3462 1.0577-1.6347 2.4039-1.6347h1.9231v2.6924h-.3847c-.4807 0-.8653.0961-1.0577.673l-6.7307 16.25c-1.0577 2.5962-3.077 3.9424-5.3846 3.9424-2.5001 0-3.9424-1.6347-3.9424-1.6347l1.3462-2.3077c.0961 0 1.0577 1.1539 2.5 1.1539Zm16.8269-23.9423c0-.4808-.2884-.7693-.7692-.7693h-1.3462V9.61533h3.1731c1.4423 0 2.1154.67307 2.1154 2.11537V29.423c0 .4808.2885.7693.7692.7693h1.3462v2.6923H88.052c-1.4423 0-2.1154-.6731-2.1154-2.1154V13.0769Zm9.9039 6.5384c0-.4807-.2885-.7692-.7692-.7692h-1.3462v-2.6923h3.1731c1.4423 0 2.1154.6731 2.1154 2.1154v11.0577c0 .4807.2884.7692.7692.7692h1.3462v2.6923h-3.1731c-1.4423 0-2.1154-.6731-2.1154-2.1154V19.6153Zm.0961-9.99997h2.8847v3.36537h-2.8847V9.61533Zm9.2304 9.99997c0-.4807-.288-.7692-.769-.7692h-1.346v-2.6923h3.173c1.539 0 2.115.6731 2.115 2.0192v7.8846c0 2.3077.481 4.1347 3.077 4.1347 3.462 0 5.481-2.9808 5.481-6.25v-7.7885h3.173v13.1731c0 .4807.289.7692.77.7692h1.346v2.6923h-3.077c-1.443 0-2.116-.6731-2.116-1.8269v-1.6346h-.096c-.673 1.6346-2.788 3.8461-6.154 3.8461-3.75 0-5.673-2.0192-5.673-6.3461v-7.2116h.096Zm20.674 8.5577s2.019 2.5 5 2.5c1.538 0 2.884-.673 2.884-2.1154 0-2.9807-9.134-2.6923-9.134-8.0769 0-3.1731 2.788-4.7115 6.153-4.7115 2.02 0 5.481.6731 5.481 3.2692v1.5385h-2.884v-.8654c0-.9616-1.443-1.4423-2.5-1.4423-1.924 0-3.077.6731-3.077 2.0192 0 3.1731 9.134 2.5 9.134 8.0769 0 2.9808-2.596 4.9039-6.154 4.9039-4.423 0-6.634-2.8846-6.634-2.8846l1.731-2.2116ZM6.41797 23.4614 14.3987 39.423l14.8077.0961 3.5577-5.0961L6.41797 23.4614Z"/>
    <path fill="#191B1D"
          d="M.84375 25.1923 11.613 39.9999h17.5961l3.5577-5.4807L.84375 25.1923ZM13.7284 7.2115l5.2884 4.0385 4.7116-9.0385-1.6347-1.05769-8.3653 6.05769Z"/>
    <path fill="#191B1D"
          d="M29.2073 40 13.7266 7.21154l3.3653-2.40385L35.0727 30.9615 29.2073 40ZM20.6496 2.21154l10.0962 8.17306L23.6304 0l-2.9808 2.21154Z"/>
</svg>
