<svg xmlns="http://www.w3.org/2000/svg" fill="none" width="70" height="70" viewBox="0 0 70 70">
    <path fill="#191B1D" fill-rule="evenodd"
          d="M69.7276 34.8638c0 19.2548-15.609 34.8638-34.8638 34.8638C15.6091 69.7276 0 54.1186 0 34.8638 0 15.6091 15.6091 0 34.8638 0c19.2548 0 34.8638 15.6091 34.8638 34.8638ZM41.1145 17.6517c2.2978-2.6968 5.3851-4.646 8.9219-4.7693 3.5346-.1159 6.2047 1.4846 6.2916 4.0173.0354 1.0781-.5847 3.1775-2.7409 3.2472-1.6101.0579-2.7236-.9043-2.774-2.3686-.0172-.5374.1212-1.0051.488-1.5544.0619-.121.1154-.2235.1616-.3119.2225-.4265.2734-.524.2654-.779-.0322-.9215-1.4257-.958-1.8065-.9387-5.2253.1716-6.6027 7.2259-7.7194 12.9608l-.5471 3.024c3.009.442 5.1459-.1019 6.3377-.8732 1.015-.6574.6304-1.3265.2278-2.0272-.263-.4575-.5337-.9285-.4273-1.4184.2757-1.2637 1.4235-1.8719 2.3375-1.8977 1.2765-.03 2.1884 1.2937 2.1594 2.6389-.044 2.2227-2.9951 5.2789-8.8951 5.1545-.7187-.0172-1.3795-.0665-1.9974-.1405l-1.1124 6.1435-.0304.1418c-.9934 4.6403-2.339 10.9259-7.0282 16.4158-4.07 4.8381-8.2 5.5911-10.0494 5.6544-3.4596.1169-5.7541-1.7282-5.8367-4.1901-.0794-2.3836 2.0296-3.6859 3.4134-3.7331 1.8473-.0611 3.1249 1.2766 3.1742 2.8192.0462 1.3055-.635 1.7131-1.0856 1.9588-.0439.0353-.091.0706-.1394.107-.2841.2134-.6131.4605-.5975.9206.0107.2296.2585.7574 1.0255.7338 1.4182-.0489 2.3739-.7297 3.0496-1.211.0215-.0153.0426-.0303.0635-.0452 3.3705-2.8095 4.6674-7.7033 6.3666-16.6155l.354-2.1605.0284-.1418c.5729-2.8609 1.2094-6.0391 2.175-9.206-.7243-.5449-1.3602-1.1296-1.9846-1.7038-1.4251-1.3104-2.7908-2.5662-5.0128-3.1696-2.1895-.5954-3.5261-.0891-4.4647 1.0974-1.1125 1.4063-.7434 3.2364.3314 4.3102l1.7743 1.962c2.1777 2.5156 3.3663 4.4712 2.919 7.1037-.7102 4.2029-5.7166 7.4254-11.6349 5.6072-5.0515-1.5577-5.9944-5.1341-5.3883-7.1048.5342-1.7346 1.9126-2.0617 3.26-1.6487 1.4439.4451 2.0081 2.1991 1.5951 3.5475-.0041.0128-.0086.0265-.0132.041-.0468.1451-.1197.3712-.2582.6638-.0693.1561-.1637.3035-.2599.4537-.1344.21-.2723.4254-.3504.678-.3251 1.0588 1.1253 1.8108 2.1347 2.1186 2.2602.6973 4.4636-.4859 5.0247-2.3138.5192-1.681-.5428-2.8535-.9837-3.303l-2.1391-2.2924c-.9783-1.091-3.1323-4.13-2.0821-7.5445.4055-1.3141 1.2583-2.7119 2.4962-3.6366 2.6132-1.947 5.4549-2.2678 8.1603-1.4911 2.6306.7586 4.2349 2.2546 5.7958 3.7102.5161.4813 1.0274.9581 1.5696 1.4024 1.2197-3.5797 2.9125-7.0864 5.457-10.0429Z"
          clip-rule="evenodd"/>
</svg>
