<svg width="21" height="20" viewBox="0 0 21 20" fill="none" xmlns="http://www.w3.org/2000/svg">
<path d="M2.91602 3.48494C7.56474 -1.92502 16.1847 -0.857531 19.4059 5.46243C17.1372 5.46368 13.586 5.46118 11.6622 5.46243C10.2672 5.46243 9.36598 5.43118 8.39098 5.94493C7.24474 6.54867 6.3785 7.66742 6.07725 8.98241L2.91602 3.48494Z" fill="#191B1D"/>
<path d="M7.17188 10.0007C7.17188 11.8345 8.66312 13.3257 10.4956 13.3257C12.3281 13.3257 13.8193 11.8345 13.8193 10.0007C13.8193 8.16699 12.3281 6.67575 10.4956 6.67575C8.66187 6.6745 7.17188 8.16699 7.17188 10.0007Z" fill="#191B1D"/>
<path d="M11.7859 14.3532C9.92094 14.907 7.73721 14.2932 6.54221 12.2283C5.62972 10.6533 3.21723 6.45204 2.12224 4.5408C-1.71774 10.4258 1.59099 18.4445 8.56095 19.8132L11.7859 14.3532Z" fill="#191B1D"/>
<path d="M13.585 6.67453C15.1387 8.11952 15.4775 10.4595 14.425 12.2732C13.6325 13.6407 11.1012 17.912 9.875 19.9794C17.0562 20.4219 22.2912 13.3845 19.9262 6.67328L13.585 6.67453Z" fill="#191B1D"/>
</svg>
