<svg width="20" height="20" viewBox="0 0 20 20" fill="none" xmlns="http://www.w3.org/2000/svg">
    <g clip-path="url(#clip0_3062_10020)">
        <path d="M5.69428 4.49174C6.84988 4.50093 7.9881 4.77422 9.0219 5.29071C10.0579 5.80577 10.9162 6.61903 11.4862 7.62588C11.8531 8.32433 12.0558 9.09735 12.0786 9.88599C12.0992 10.4242 11.9191 10.9509 11.5732 11.3638L11.5456 11.3908C11.4559 11.4654 11.3832 11.5582 11.3324 11.6632C11.2816 11.7681 11.2538 11.8828 11.251 11.9993C11.2611 12.1665 11.312 12.3287 11.3992 12.4717C11.4864 12.6147 11.6073 12.7342 11.7514 12.8196C12.8789 13.6036 14.8712 13.5442 15.0813 13.5369C15.9453 13.5349 16.7928 13.3011 17.5356 12.86C18.2827 12.422 18.9028 11.7969 19.3349 11.0463C19.767 10.2958 19.9962 9.44566 19.9999 8.57963C20.011 7.39543 19.718 6.22819 19.1489 5.18963L19.1078 5.1069C17.4942 1.95241 14.0038 -0.00713276 9.99567 -0.00713276C7.35603 -0.0105441 4.82247 1.03152 2.94911 2.89115C1.84952 3.96949 1.01749 5.29014 0.519531 6.74752C1.16997 6.02256 1.96868 5.44592 2.86152 5.05671C3.75435 4.66751 4.72044 4.47483 5.69428 4.49174Z" fill="#212121"/>
        <path d="M8.45016 19.4726L8.42881 19.4602C7.71691 19.0197 7.10033 18.4413 6.61538 17.7589C5.61085 16.3811 5.19457 14.6608 5.45806 12.9763C5.72155 11.2917 6.64324 9.78067 8.02048 8.77546C8.29837 8.57263 9.11034 7.91645 9.99738 7.91911C10.3616 7.92263 10.7187 8.02118 11.0332 8.20501C10.9952 8.12227 10.9545 8.04021 10.9084 7.96081C10.4011 7.06328 9.6356 6.33905 8.71136 5.88218C7.77212 5.41877 6.74092 5.17186 5.69365 5.15961C2.66426 5.15961 0.166297 7.13817 0.00683765 9.60744C0.00450248 9.69585 0.000165735 9.78358 0.000165735 9.87199C-0.00839381 11.381 0.314694 12.8734 0.946578 14.2438C1.71576 15.8867 2.91778 17.2893 4.42368 18.3008C5.92957 19.3124 7.68248 19.8948 9.49431 19.9856C9.13049 19.8488 8.7808 19.6769 8.45016 19.4726Z" fill="#212121"/>
        <path d="M18.2698 14.4479C18.1746 14.387 18.0648 14.3527 17.9519 14.3487C17.8389 14.3447 17.7269 14.3711 17.6277 14.4252C17.3821 14.5535 17.1289 14.6666 16.8694 14.7638C16.0445 15.0732 15.1707 15.2314 14.2897 15.2308H14.2744C10.7716 15.2308 7.91936 12.8623 7.91936 9.95335C7.92058 9.86974 7.92704 9.78629 7.93871 9.70349C6.88535 10.6593 6.22278 11.9709 6.07854 13.3859C5.9343 14.8009 6.31859 16.2192 7.15742 17.3679C7.58816 17.9747 8.13517 18.4898 8.76669 18.8834L8.79004 18.8971C9.43592 19.3 10.1603 19.5607 10.9148 19.6617C11.6693 19.7627 12.4367 19.7017 13.1658 19.4829C15.352 18.7363 17.2205 17.2707 18.4663 15.3253C18.5563 15.1828 18.5862 15.0104 18.5494 14.846C18.5125 14.6815 18.412 14.5384 18.2698 14.4479Z" fill="#212121"/>
    </g>
    <defs>
        <clipPath id="clip0_3062_10020">
            <rect width="20" height="20" fill="white"/>
        </clipPath>
    </defs>
</svg>
