<svg width="20" height="20" viewBox="0 0 20 20" fill="none" xmlns="http://www.w3.org/2000/svg">
    <path d="M19.2836 6.63299C19.1689 6.35491 19.0414 6.08318 18.9019 5.81846C18.9011 5.81697 18.9003 5.81548 18.8995 5.814C18.8867 5.78966 18.8737 5.76537 18.8607 5.74115C18.8592 5.73838 18.8577 5.73561 18.8562 5.73284C18.8436 5.7095 18.8309 5.68621 18.8181 5.66299C18.8162 5.65949 18.8142 5.65599 18.8123 5.6525C18.7997 5.6297 18.7871 5.60695 18.7743 5.58426C18.7723 5.58075 18.7703 5.57725 18.7683 5.57374C18.7554 5.55091 18.7425 5.52812 18.7294 5.50541C18.728 5.50289 18.7265 5.50038 18.725 5.49786C18.6681 5.39922 18.6096 5.30163 18.5493 5.20515C18.5479 5.20288 18.5465 5.20059 18.545 5.19832C18.534 5.18073 18.5229 5.16321 18.5118 5.14568C18.5062 5.1369 18.5007 5.1281 18.4951 5.11933C18.4852 5.1039 18.4752 5.08853 18.4653 5.07315C18.4583 5.06235 18.4513 5.05154 18.4443 5.04077C18.435 5.02651 18.4256 5.01231 18.4162 4.9981C18.4084 4.98625 18.4005 4.9744 18.3927 4.96258C18.3837 4.94912 18.3746 4.93568 18.3656 4.92226C18.3572 4.90979 18.3488 4.89734 18.3403 4.88491C18.3315 4.87202 18.3227 4.85916 18.3139 4.84631C18.305 4.83335 18.296 4.82041 18.287 4.80749C18.2785 4.79517 18.2699 4.78287 18.2613 4.77059C18.2519 4.75718 18.2424 4.74381 18.2329 4.73045C18.2246 4.71865 18.2162 4.70686 18.2078 4.6951C18.1978 4.68118 18.1878 4.66731 18.1777 4.65344C18.1697 4.64231 18.1616 4.63117 18.1535 4.62007C18.1428 4.60534 18.1319 4.59067 18.1211 4.57601C18.1135 4.5658 18.106 4.55556 18.0984 4.54538C18.0863 4.52908 18.074 4.51285 18.0618 4.49662C18.0554 4.48814 18.049 4.47962 18.0426 4.47115C18.0239 4.44651 18.005 4.42195 17.9861 4.39749C17.6966 4.02745 17.381 3.67989 17.0433 3.35662C16.8067 3.11953 16.5555 2.8989 16.2918 2.6947C16.1311 2.55961 15.9636 2.43216 15.7908 2.3119C15.4827 2.08895 15.1466 1.88802 14.7813 1.71287C14.6914 1.6672 14.6009 1.62284 14.5098 1.57989C13.7942 1.24258 13.0469 0.976372 12.2747 0.810947C12.1719 0.78893 12.0687 0.76878 11.9652 0.750077C11.4503 0.654622 10.9259 0.600084 10.3968 0.589836C10.3156 0.588262 10.2353 0.587666 10.1558 0.587824C9.4634 0.586873 8.78062 0.654948 8.13331 0.787496C6.71259 1.07841 5.46321 1.67517 4.67308 2.42122C4.67424 2.42053 4.67544 2.41986 4.6766 2.41918C4.67529 2.42047 4.67419 2.42157 4.67336 2.42239C4.67512 2.42097 4.67716 2.41933 4.67931 2.41761C4.68097 2.41664 4.68266 2.41568 4.68432 2.41471C4.68305 2.41569 4.68176 2.41665 4.6805 2.41763C4.68343 2.41568 4.68699 2.41339 4.69106 2.41081C5.28217 2.06618 6.09785 1.78695 6.68084 1.64398C6.71765 1.63496 6.75453 1.6263 6.79143 1.61778C6.80898 1.61376 6.82662 1.60978 6.84436 1.60583C6.85741 1.6029 6.87047 1.60006 6.88353 1.5972C6.95933 1.58067 7.0367 1.5648 7.1157 1.54974C7.12388 1.54819 7.13206 1.54666 7.14024 1.54513C7.16526 1.54044 7.19039 1.53581 7.21571 1.53128C9.79985 1.07308 12.5557 1.82355 14.4742 3.60935C14.8867 3.99329 15.2565 4.4229 15.5564 4.89609C16.7803 6.82733 16.6645 9.25523 15.7103 10.6872C15.0014 11.7509 13.4834 12.7489 12.0671 12.738C12.0957 12.7395 12.1243 12.7407 12.1528 12.7418C12.1064 12.7408 12.0598 12.7391 12.0131 12.7364C12.0115 12.7364 12.01 12.7363 12.0085 12.7362C11.3337 12.6968 10.7496 12.5437 10.2568 12.3097C8.00842 11.242 7.66024 8.49045 9.26124 7.16638C9.26122 7.16638 9.2612 7.16638 9.26119 7.16637C9.26119 7.16637 9.26119 7.16637 9.26119 7.16637C8.73463 7.05629 7.74506 7.27184 7.0561 8.27164C6.43801 9.16861 6.47279 10.5545 6.85415 11.5374C6.62222 11.0641 6.45215 10.5828 6.36343 10.0012C5.88089 6.83767 8.00705 4.12892 10.0212 3.3667C10.0695 3.34841 10.1178 3.33124 10.1659 3.31521C10.1659 3.31521 10.166 3.3152 10.166 3.3152C9.73278 2.94798 9.04488 2.73394 8.24412 2.69744C7.059 2.64342 5.62665 2.97829 4.40689 3.78107C4.34096 3.82447 4.27564 3.86923 4.21102 3.91537C4.21077 3.91555 4.21052 3.91574 4.21027 3.91592C4.1769 3.93975 4.1439 3.96395 4.11106 3.98833C4.10414 3.99347 4.09721 3.9986 4.09032 4.00376C4.05821 4.0278 4.02633 4.05208 3.99473 4.07665C3.98928 4.08089 3.98388 4.08518 3.97844 4.08943C3.94848 4.11288 3.91873 4.13654 3.88923 4.16046C3.88556 4.16343 3.88187 4.16636 3.87821 4.16934C3.84651 4.19515 3.81513 4.22129 3.78396 4.24765C3.77813 4.25259 3.77231 4.25753 3.7665 4.26249C3.7349 4.28941 3.70351 4.31654 3.67247 4.34401C3.67131 4.34504 3.67016 4.34609 3.669 4.34712C3.63804 4.37456 3.60742 4.40231 3.57703 4.43029C3.57328 4.43374 3.56951 4.43717 3.56578 4.44063C3.53494 4.46916 3.5044 4.49798 3.47414 4.52706C3.47087 4.5302 3.46763 4.53337 3.46436 4.53652C3.40196 4.59677 3.34081 4.65821 3.28093 4.72079C3.27866 4.72316 3.27639 4.72553 3.27413 4.7279C2.5521 5.48487 2.01582 6.41002 1.68932 7.45604C1.73754 6.86833 1.91542 6.07259 2.25427 5.20842C2.25443 5.208 2.25459 5.20758 2.25476 5.20716C2.26881 5.17134 2.28317 5.1354 2.29777 5.09936C2.29888 5.09663 2.29997 5.0939 2.30109 5.09116C2.31504 5.05681 2.32928 5.02235 2.34374 4.98781C2.34557 4.98345 2.34739 4.97908 2.34923 4.97471C2.36325 4.94136 2.37753 4.90792 2.39202 4.87441C2.39441 4.8689 2.3968 4.86338 2.3992 4.85786C2.4134 4.82517 2.42785 4.79242 2.44251 4.7596C2.44532 4.75332 2.44814 4.74704 2.45097 4.74075C2.46549 4.70842 2.48022 4.67604 2.4952 4.64361C2.49828 4.63693 2.50139 4.63024 2.50449 4.62356C2.51945 4.59132 2.53461 4.55903 2.55002 4.52669C2.55324 4.51994 2.5565 4.51318 2.55974 4.50642C2.57529 4.47396 2.59102 4.44147 2.60703 4.40893C2.61016 4.40256 2.61334 4.39619 2.61649 4.38982C2.63282 4.3568 2.64933 4.32374 2.66612 4.29066C2.66897 4.28505 2.67187 4.27943 2.67473 4.27382C2.69091 4.24211 2.70727 4.21037 2.72388 4.17861C2.72558 4.17537 2.72724 4.17213 2.72894 4.16888C2.72892 4.16889 2.72891 4.1689 2.72889 4.16891C2.7289 4.1689 2.7289 4.16889 2.72891 4.16888C2.49831 4.28468 2.24669 4.48407 1.99756 4.73605C1.49895 5.24035 1.01031 5.95557 0.720103 6.63483C0.237932 7.76338 -0.00398614 9.06181 4.96702e-05 10.3608C0.00125421 10.7522 0.0245154 11.1436 0.0705892 11.5304C0.072954 11.5501 0.075245 11.5698 0.0775537 11.5896C0.0890736 11.6883 0.100316 11.7868 0.113344 11.8849C0.114289 11.892 0.115148 11.8991 0.116114 11.9062C0.921208 16.5016 5.03357 20 9.98636 20C15.5167 20 20 15.6382 20 10.2577C20 8.97659 19.7456 7.75338 19.2836 6.63299Z" fill="#191B1D"/>
</svg>
