<svg width="140" height="140" fill="none" xmlns="http://www.w3.org/2000/svg">
  <path d="M52.8 110.1V90h3.9c5.1 0 7.6 1.8 7.6 5.7 0 1.2-.7 2.9-1.7 3.7 2 .6 3.5 2.9 3.5 5.1 0 4.3-3.7 5.7-7.2 5.7h-6.1zm6-2.6c2.8 0 4.2-1 4.2-3.3 0-2.7-2.8-3-4.7-3H56v6h2.8v.3zm-1.3-8.8c2.5 0 3.9-.4 3.9-3.1 0-2.5-1.4-2.9-3.9-2.9h-1.6v6h1.6zm44.7-8.8h3.3l5.7 14.1 5.5-14.1h3.3l-8.8 21.9-9-22zM81 110V90h3v17.4h9.3l-.2.6-1 2.2H81zm-44.7 0h3.3l-9.9-21.5-9.8 21.5h3.3l2.2-4.9h7.2l.8-1.6 2.9 6.5zm-9.6-7.7l3-7 3.1 7h-6.1zm43.6-46.6l1 8H90L70.4 53.4 51 63.8h18.5l-1 8.6L50.5 64l20 11.5L90.2 64l-19.9 9.3V55.8zm3-5.5l6.6-5-9.2-15.9.6 22.1 18.7 11.7-9-16 7.8-3.2 1.6 19.4v-23L70.6 29l18 12.5-15.1 8.8zm-6.3 0l-7.3-3-9.3 16 18.9-11.8.6-22-9.2 15.9-7-5.1L70 29 50.1 40.5v23l1.9-22L67 50.3z" fill="#191B1D"/>
</svg>
