<svg width="140" height="140" fill="none" xmlns="http://www.w3.org/2000/svg">
  <path d="M64.2 63.8h-5.6v25.5h5.6V63.8zm-14.7 13a7.4 7.4 0 11-14.8 0v-7.4h7.2c4.2 0 7.6 3.4 7.6 7.4zm5.4 0a13 13 0 00-13-13h-7.3V50H29v26.7a13 13 0 0013 13c7.2.2 12.9-5.7 12.9-12.9zm9.6-19.5a3 3 0 00-3-3 3 3 0 00-3 3 3 3 0 003 3 3 3 0 003-3zm17 32.7h.8v-5.5h-.7c-2.9-.2-4.8-2.4-4.8-5.4V69h5.5v-5.3H77v-9.2h-5.4v9.2h-4.2v5.4h4.2V79c-.2 6 4.1 10.5 10 10.9zm19-32.7a3 3 0 00-3-3 3 3 0 00-3 3 3 3 0 003 3c1.5.1 3-1.3 3-3zm3.4 16H90.6c1.3-3.2 4.2-5 6.7-5 2.9 0 5.5 2 6.6 5zm6.3 4.3c0-4.3-1.5-8-4-10.7a12.4 12.4 0 00-8.9-3.7c-7 0-12.8 6-12.8 13.4s5.7 13.3 13 13.3a12 12 0 0012-8.6h-6a6.6 6.6 0 01-6 3.4 7.5 7.5 0 01-7.4-6.4h20v-.7z" fill="#191B1D"/>
</svg>
