<svg width="140" height="140" fill="none" xmlns="http://www.w3.org/2000/svg">
  <path d="M112.4 81.3c.6-1.3 1-3 1-4.6 0-2.6-1.2-5-3.2-6.6l-1.6-1.1h-.2l.2-.2c1.3-1 2.5-3 2.5-6.4 0-3.1-1-5.5-3-7a12.7 12.7 0 00-7.6-1.8H91c-.6 0-1 .3-1 .9v31.2c0 .5.4 1 1 1h10.8c3.5 0 6.2-.8 8-2.3a8.7 8.7 0 002.6-3.1zM92.8 56.5h7.3c2.6 0 4.6.4 5.9 1.3.7.5 1.8 1.6 1.8 4.4 0 5-3.8 5.3-5.1 5.3h-10v-11zm8.8 27h-8.8V70.6h9.9c4.4 0 7.3 2.4 7.3 6 .2 1.7.2 6.9-8.4 6.9zm-20.4 3.3h.4c.4-.2.7-.6.7-1V40h-3v39.6l-20.6-26-.8-.4h-.3c-.4.2-.8.6-.8 1V100H60V60.4l20.4 26c.4.2.7.4 1 .4zm-34.1-5.1c3.1-3.9 3.7-8.9 3.7-11.4 0-2.2-.4-7.7-3.7-12a14.2 14.2 0 00-11.2-5h-9c-.5 0-.9.6-.9 1.2v31.2c0 .5.4 1 1 1h9c2 0 4-.5 5.8-1.2 2.2-.7 3.8-2.2 5.3-3.8zm-11 1.8h-7v-27h7c2.6 0 6 .7 8.6 3.9 2.8 3.3 3 8.4 3 9.9 0 2.2-.4 6.4-3 9.5-2.6 3.1-6 3.7-8.6 3.7z" fill="#191B1D"/>
</svg>
