<svg width="140" height="140" fill="none" xmlns="http://www.w3.org/2000/svg">
  <path d="M70 110a40 40 0 110-80 40 40 0 010 80zm0-78a38 38 0 100 76 38 38 0 000-76zm33.8 49.4h-.2s-.2 0-.2-.2c0 0 1.4-4 1.4-8.5 0-4.8-2-8-4.5-8a2.6 2.6 0 00-2.7 2.8c0 3 3.7 3.3 3.7 9.8 0 2.7-.6 5.3-1.4 8-4 13.9-17 20.3-29.9 20.3a31 31 0 01-11.3-1.8v-.2l.2-.2c.6.2 4.1 1.4 8.6 1.4 4.8 0 7.7-2 7.7-4.5 0-1.5-1.1-2.7-2.7-2.7-2.9 0-3.3 3.7-9.7 3.7-2.7 0-5.2-.6-8.1-1.3-13.8-4.1-20.4-17-20.4-30 0-6.2 1.7-11.2 1.7-11.4h.2l.2.2c-.2.6-1.4 4-1.4 8.5 0 4.8 2 7.7 4.5 7.7 1.4 0 2.7-1.1 2.7-2.7 0-3-3.7-3.3-3.7-9.8 0-2.7.6-5.3 1.4-8.2 4.5-13.5 17.3-19.9 30.1-20 5.8 0 11 1.7 11.3 1.9v.2c0 .2-.2.2-.2.2s-3.5-1.4-8.6-1.4c-4.8 0-7.7 2-7.7 4.7 0 1.3 1.1 2.7 2.7 2.7 2.9 0 3.3-3.7 9.7-3.7 2.7 0 5.2.6 8.1 1.3 13.8 4.3 20.2 17.4 20.2 30 .2 6.4-1.7 11.2-1.7 11.2zm-19-9.5c-3.7 0-6.6 2.7-6.6 6.2 0 2.7 1.7 5 3.8 5 .8 0 1.6-.3 1.6-1.3 0-1.4-2-1.8-1.8-3.9 0-1.3 1.4-2.3 2.8-2.3 2.7 0 3.8 2.5 3.8 5.2-.1 4-3 7-6.6 7-4.6 0-7.5-4.5-7.5-9.3 0-7.1 4.6-9.9 7-10.6 0 0 6.4 1.1 6.2-1.8 0-1.1-2-1.7-3.3-1.7-1.6 0-3 .4-3 .4a3 3 0 01-1.5-2.1c4.5-3.5 7.8-6.8 7.8-10.7 0-1.9-1.4-3.8-4-3.8-4.4 0-7.9 5.8-7.9 11 0 1 0 1.7.2 2.5-2.9 2.1-5 3.5-9 5.8l.5-3.3c1.3-1.3 3-3.7 3-5.2 0-.8-.3-1.4-1.3-1.4-2.1 0-3.9 3.3-4.2 5.6-1 1.2-3 2.7-4.7 2.7-1.4 0-1.8-1.1-2-1.7 4.3-1.3 9.4-7.1 9.4-12.4 0-1.1-.4-3.4-3.7-3.4-5 0-9.1 7.3-9.1 13.1-1.8 0-2.6-2-2.6-3.3 0-1.3.6-2.9.6-3.3 0-.4-.2-1-1-1-1.7 0-2.7 2.2-2.7 4.9.2 3.5 2.6 5.8 5.7 6 .3 2.1 2.3 4 4.6 4 1.4 0 3.3-.3 4.5-1.5l-.4 2.1c-4.9 2.5-8.4 4.3-11.7 7.2-2.5 2.3-4 5.4-4 7.9 0 3.3 2.1 6.4 6.4 6.4 5 0 9-4 10.9-9.9 1-2.7 1.1-6.6 1.5-10 5-3 7.6-4.7 10.1-6.4.4.6.6 1 1.2 1.3-2.4 1.2-8 4.7-8 12.8 0 5.8 3.9 12.2 11.5 12.2 6.4 0 10.6-5.2 10.6-10.3.4-4.4-2.3-8.7-7.1-8.7zM54.3 87.4c-1.8 0-2.7-1-2.7-2.7 0-4.8 6.6-9.3 11.6-11.8-1 6.8-3.1 14.3-9 14.5zM58 61.3c0-3.7 3.7-10.6 5.8-9.9 2.7.8-2.1 8-5.8 9.9zm21-1.7c0-4.7 3-9 4.6-8.2 2 1-1.4 5.3-4.7 8.2z" fill="#191B1D"/>
</svg>
