<svg width="140" height="140" fill="none" xmlns="http://www.w3.org/2000/svg">
  <path fill-rule="evenodd" clip-rule="evenodd" d="M47.2 59.2s-5-4.7-13.2-4.7c-7.9 0-12.2 4.9-12.2 9.6 0 3.4 1.9 7.2 8.4 9l7.2 1.6c2.2.5 3.3 1.5 3.1 2.6-.5 1.8-3 2.3-5.6 2.3-2.3 0-5-.5-9.1-4L20 79.7c1.6 1.9 7 6 15 6s14.1-3.4 14.1-10c0-5-3.3-7-8.2-8.5l-7.7-2.1c-2.1-.4-3.4-1.4-3-2.8.3-1.2 2-1.8 4-1.8s5.1.6 7.7 2.7l5.3-4zM81.6 55V62H66v4.7h11v6.7H66v4.9H82V85H57.5V55h24z" fill="#191B1D"/>
  <path d="M53.2 48h-2v44h2V48zm34 0h-2v44h2V48z" fill="#191B1D"/>
  <path fill-rule="evenodd" clip-rule="evenodd" d="M91.4 55h17.7c5 0 9.1 3 9.1 7.6a7 7 0 01-4.3 6.6l-.4.2h.4c3.5 1.2 6.1 3.7 6.1 7.7 0 5-4.2 8-9.3 8H91.4v-30zm8.4 6.3v5.3h6.9c1.5 0 2.8-1.2 2.8-2.6 0-1.4-1.3-2.7-2.8-2.7h-6.9zm8.3 17c1.4 0 2.6-1.2 2.6-2.6 0-1.4-1.2-2.6-2.6-2.6h-8.3v5.4h8.3v-.1z" fill="#191B1D"/>
</svg>
